<?xml version="1.0" encoding="utf-8"?>
<!-- Generator: Adobe Illustrator 21.0.0, SVG Export Plug-In . SVG Version: 6.00 Build 0)  -->
<svg version="1.1" id="Layer_1" xmlns="http://www.w3.org/2000/svg" xmlns:xlink="http://www.w3.org/1999/xlink" x="0px" y="0px"
	 viewBox="0 0 33.9 33.9" style="enable-background:new 0 0 33.9 33.9;" xml:space="preserve">
<style type="text/css">
	.st0{fill:none;stroke:#FFFFFF;stroke-miterlimit:10;}
	.st1{fill:#FFFFFF;}
</style>
<g>
	<circle class="st0" cx="17" cy="17" r="16.5"/>
	<path class="st1" d="M13.7,19c0,0-0.9,0-0.9,0c-0.1,0-0.2,0.1-0.3,0.1l-2.8,2.8c0,0,0-2.5,0-2.5c0-0.3-0.2-0.4-0.5-0.4H7.8
		c-0.1,0-0.2-0.1-0.2-0.2v-8.4c0-0.1,0.1-0.2,0.2-0.2h13.9c0.1,0,0.2,0.1,0.2,0.2v3.2c0,0.3,0.2,0.5,0.5,0.5c0.3,0,0.5-0.2,0.5-0.5
		v-3.2c0-0.6-0.5-1.2-1.2-1.2H7.8c-0.6,0-1.2,0.5-1.2,1.2v8.4c0,0.6,0.5,1.2,1.2,1.2h0.9v3.1c0,0.2,0.1,0.4,0.3,0.5
		c0.1,0,0.1,0,0.2,0c0.1,0,0.3,0,0.3-0.1l3.5-3.5h0.7c0.3,0,0.5-0.2,0.5-0.5C14.2,19.2,14,19,13.7,19z"/>
	<path class="st1" d="M26.3,15.3h-9.8c-0.6,0-1.2,0.5-1.2,1.2v5.7c0,0.6,0.5,1.2,1.2,1.2h6.1l2.5,2.5c0.1,0.1,0.2,0.1,0.3,0.1
		c0.1,0,0.1,0,0.2,0c0.2-0.1,0.3-0.3,0.3-0.5v-2.1h0.3c0.6,0,1.2-0.5,1.2-1.2v-5.7C27.5,15.8,26.9,15.3,26.3,15.3z M26.5,22.2
		c0,0.1-0.1,0.2-0.2,0.2h-0.8c-0.3,0-0.5,0.2-0.5,0.5c0,0,0,1.5,0,1.5l-1.8-1.8c0,0,0,0,0,0c0,0,0,0,0,0c-0.1-0.1-0.2-0.1-0.3-0.1
		h-6.3c-0.1,0-0.2-0.1-0.2-0.2v-5.7c0-0.1,0.1-0.2,0.2-0.2h9.8c0.1,0,0.2,0.1,0.2,0.2V22.2z"/>
	<path class="st1" d="M21.4,18.8c-0.3,0-0.5,0.2-0.5,0.5c0,0.3,0.2,0.5,0.5,0.5c0.3,0,0.5-0.2,0.5-0.5C21.9,19,21.7,18.8,21.4,18.8z
		"/>
	<path class="st1" d="M10.4,12.5c-0.3,0-0.5,0.2-0.5,0.5s0.2,0.5,0.5,0.5h8.9c0.3,0,0.5-0.2,0.5-0.5c0-0.3-0.2-0.5-0.5-0.5
		L10.4,12.5z"/>
	<path class="st1" d="M13.7,15.8h-3.4c-0.3,0-0.5,0.2-0.5,0.5s0.2,0.5,0.5,0.5h3.4c0.3,0,0.5-0.2,0.5-0.5C14.2,16,14,15.8,13.7,15.8
		z"/>
	<path class="st1" d="M19.1,18.8c-0.3,0-0.5,0.2-0.5,0.5c0,0.3,0.2,0.5,0.5,0.5c0.3,0,0.5-0.2,0.5-0.5C19.6,19,19.4,18.8,19.1,18.8z
		"/>
	<path class="st1" d="M23.7,19.1c-0.3,0-0.5,0.2-0.5,0.5s0.2,0.5,0.5,0.5c0.3,0,0.5-0.2,0.5-0.5C24.2,19.3,24,19.1,23.7,19.1z"/>
</g>
</svg>
