<?xml version="1.0" encoding="UTF-8" standalone="no"?>
<!-- Generator: Adobe Illustrator 21.0.0, SVG Export Plug-In . SVG Version: 6.00 Build 0)  -->

<svg
   xmlns:dc="http://purl.org/dc/elements/1.1/"
   xmlns:cc="http://creativecommons.org/ns#"
   xmlns:rdf="http://www.w3.org/1999/02/22-rdf-syntax-ns#"
   xmlns:svg="http://www.w3.org/2000/svg"
   xmlns="http://www.w3.org/2000/svg"
   xmlns:sodipodi="http://sodipodi.sourceforge.net/DTD/sodipodi-0.dtd"
   xmlns:inkscape="http://www.inkscape.org/namespaces/inkscape"
   version="1.1"
   id="Layer_1"
   x="0px"
   y="0px"
   viewBox="0 0 34.9 34.9"
   style="enable-background:new 0 0 34.9 34.9;"
   xml:space="preserve"
   sodipodi:docname="object.svg"
   inkscape:version="0.92.4 (unknown)"><metadata
   id="metadata21"><rdf:RDF><cc:Work
       rdf:about=""><dc:format>image/svg+xml</dc:format><dc:type
         rdf:resource="http://purl.org/dc/dcmitype/StillImage" /></cc:Work></rdf:RDF></metadata><defs
   id="defs19" /><sodipodi:namedview
   pagecolor="#ffffff"
   bordercolor="#666666"
   borderopacity="1"
   objecttolerance="10"
   gridtolerance="10"
   guidetolerance="10"
   inkscape:pageopacity="0"
   inkscape:pageshadow="2"
   inkscape:window-width="1301"
   inkscape:window-height="744"
   id="namedview17"
   showgrid="false"
   inkscape:zoom="6.9616516"
   inkscape:cx="15.15445"
   inkscape:cy="16.950001"
   inkscape:window-x="65"
   inkscape:window-y="24"
   inkscape:window-maximized="1"
   inkscape:current-layer="g14" />
<style
   type="text/css"
   id="style2">
	.st0{fill:#4cb648;}
	.st1{fill:none;stroke:#4cb648;stroke-miterlimit:10;}
</style>
<g
   id="g14"
   transform="translate(0.14364407,0.43093222)">
	<path
   class="st0"
   d="m 12.2,9 c 0,0 0.1,0 0.1,0.1 0.2,0.1 0.4,0.4 0.3,0.6 -0.1,0.3 -0.3,0.4 -0.5,0.4 -0.5,0 -1,0 -1.4,0 -0.1,0 -0.1,0 -0.2,0 0,0.1 0,0.1 0,0.2 0,0.8 0,1.6 0,2.5 0,0.1 0,0.2 0,0.2 -0.1,0.3 -0.3,0.5 -0.6,0.4 -0.3,0 -0.5,-0.3 -0.5,-0.5 0,-0.6 0,-1.3 0,-1.9 0,-0.4 0,-0.8 0,-1.2 C 9.4,9.5 9.5,9.2 9.8,9.1 10.5,9 11.3,9 12.2,9 Z"
   id="path4"
   style="fill:#4cb648" />
	<path
   class="st0"
   d="m 24.2,9 c 0.3,0.1 0.4,0.4 0.4,0.7 0,1 0,2 0,3.1 0,0.4 -0.2,0.6 -0.5,0.6 -0.3,0 -0.5,-0.2 -0.5,-0.6 0,-0.8 0,-1.7 0,-2.5 0,-0.1 0,-0.1 0,-0.2 -0.1,0 -0.2,0 -0.3,0 -0.4,0 -0.8,0 -1.3,0 -0.3,0 -0.6,-0.2 -0.6,-0.4 -0.1,-0.3 0.1,-0.5 0.4,-0.6 0,0 0,0 0,0 C 22.6,9 23.4,9 24.2,9 Z"
   id="path6"
   style="fill:#4cb648" />



	<path
   class="st0"
   d="m 10.4,22.203814 c 0.6,0 1.1,0 1.6,0 0.4,0 0.7,0.4 0.5,0.7 0,0.2 -0.2,0.4 -0.5,0.4 -0.7,0 -1.5,0 -2.2,0 -0.3,0 -0.5,-0.2 -0.5,-0.5 0,-1.1 0,-2.2 0,-3.3 0,-0.3 0.3,-0.6 0.6,-0.5 0.3,0 0.5,0.2 0.5,0.6 0,0.8 0,1.7 0,2.5 0,-0.1 0,0 0,0.1 z"
   id="path8"
   style="fill:#4cb648" />
	<path
   class="st0"
   d="m 23.5,22.347458 c 0,0.46974 0,-1.359938 0,-2.7 0,-0.4 0.4,-0.7 0.7,-0.5 0.2,0.1 0.3,0.3 0.3,0.5 v 3.3 c 0,0.3 -0.2,0.5 -0.5,0.5 h -2.2 c -0.3,0 -0.5,-0.3 -0.5,-0.6 0,-0.3 0.2,-0.5 0.5,-0.5 h 1.4 z"
   id="path10"
   style="fill:#4cb648"
   />
	<circle
   class="st1"
   cx="17"
   cy="17"
   r="16.5"
   id="circle12"
   style="fill:none;stroke:#4cb648;stroke-miterlimit:10" />
<g
   id="g123"
   transform="matrix(0.01857173,0,0,0.02051896,6.0902683,39.011559)"><path
     d="m 596.34727,-1210.3785 c -88.9667,0 -169.64634,38.8238 -229.17973,101.884 -4.85792,5.1664 -4.85792,12.3841 0,17.5505 59.53339,63.1362 140.21303,101.96002 229.17973,101.96002 88.96669,0 169.64633,-38.82382 229.17972,-101.88402 4.85792,-5.1664 4.85792,-12.3841 0,-17.5505 -59.53339,-63.1362 -140.21303,-101.96 -229.17972,-101.96 z m 6.38198,188.6488 c -59.05712,2.963 -107.82687,-35.8608 -104.11199,-83.042 3.04811,-38.8998 42.57828,-70.4298 91.34803,-72.8611 59.05712,-2.9631 107.82687,35.8608 104.11198,83.0419 -3.14336,38.8238 -42.67353,70.3539 -91.34802,72.8612 z m -2.95286,-36.0127 c -31.81464,1.5955 -58.10459,-19.298 -56.00901,-44.674 1.61931,-20.9694 22.95607,-37.9121 49.24602,-39.2797 31.81464,-1.5955 58.10458,19.298 56.00901,44.674 -1.71456,21.0454 -23.05133,37.9881 -49.24602,39.2797 z"
     id="path121"
     style="stroke-width:0.85070479;stroke:#4cb648;fill:#4cb648;" /></g></g>
</svg>