<?xml version="1.0" encoding="iso-8859-1"?>
<!-- Generator: Adobe Illustrator 21.0.0, SVG Export Plug-In . SVG Version: 6.00 Build 0)  -->
<svg version="1.1" id="Layer_1" xmlns="http://www.w3.org/2000/svg" xmlns:xlink="http://www.w3.org/1999/xlink" x="0px" y="0px"
	 viewBox="0 0 33.9 33.9" style="enable-background:new 0 0 33.9 33.9;" xml:space="preserve">
<g>
	<path style="fill:#FFFFFF;" d="M15.821,33.732h2.258c1.355,0,2.408-1.054,2.408-2.408V30.12c1.054-0.301,2.107-0.753,3.161-1.355
		l0.753,0.753c0.452,0.452,1.054,0.753,1.806,0.753c0.602,0,1.355-0.301,1.806-0.753l1.505-1.505
		c0.452-0.452,0.753-1.054,0.753-1.806c0-0.602-0.301-1.355-0.753-1.806l-0.753-0.753c0.602-1.054,1.054-2.107,1.355-3.161h1.204
		c1.355,0,2.408-1.054,2.408-2.408v-2.258c0-1.355-1.054-2.408-2.408-2.408H30.12c-0.301-1.054-0.753-2.107-1.355-3.161L29.518,9.5
		c0.452-0.452,0.753-1.054,0.753-1.806c0-0.602-0.301-1.355-0.753-1.806l-1.505-1.505c-0.452-0.452-1.054-0.753-1.806-0.753
		c-0.602,0-1.355,0.301-1.806,0.753l-0.753,0.753c-1.054-0.602-2.107-1.054-3.161-1.355V2.576c0-1.355-1.054-2.408-2.408-2.408
		h-2.258c-1.355,0-2.408,1.054-2.408,2.408V3.78c-1.054,0.301-2.107,0.753-3.161,1.355L9.5,4.382C9.048,3.931,8.446,3.63,7.694,3.63
		c-0.602,0-1.355,0.301-1.806,0.753L4.382,5.888c-0.903,0.903-0.903,2.559,0,3.462l0.753,0.753
		c-0.602,1.054-1.054,2.107-1.355,3.161H2.576c-1.355,0-2.408,1.054-2.408,2.408v2.258c0,1.355,1.054,2.408,2.408,2.408H3.78
		c0.301,1.054,0.753,2.107,1.355,3.161l-0.903,1.054c-0.903,0.903-0.903,2.559,0,3.462l1.505,1.505
		c0.452,0.452,1.054,0.753,1.806,0.753c0.602,0,1.355-0.301,1.806-0.753l0.753-0.753c1.054,0.602,2.107,1.054,3.161,1.355v1.204
		C13.413,32.678,14.467,33.732,15.821,33.732L15.821,33.732z M10.704,26.357c-0.151-0.151-0.452-0.151-0.602-0.151
		c-0.301,0-0.602,0.151-0.753,0.301l-1.505,1.505H7.694H7.543l-1.505-1.505c0,0,0-0.151,0-0.301l1.505-1.505
		c0.452-0.452,0.452-1.054,0.151-1.505c-0.903-1.204-1.355-2.559-1.656-4.064c-0.151-0.602-0.602-0.903-1.054-0.903H2.727
		c-0.151,0-0.151-0.151-0.151-0.151v-2.258c0-0.151,0.151-0.151,0.151-0.151h2.107c0.602,0,1.054-0.452,1.054-0.903
		c0.301-1.505,0.903-2.86,1.656-4.064c0.301-0.452,0.301-1.054-0.151-1.505L5.888,7.694c0,0,0-0.151,0-0.301l1.505-1.505h0.151
		h0.151l1.505,1.505c0.452,0.452,1.054,0.452,1.505,0.151c1.204-0.903,2.559-1.355,4.064-1.656c0.602-0.151,0.903-0.602,0.903-1.054
		V2.727c0-0.151,0.151-0.151,0.151-0.151h2.258c0.151,0,0.151,0.151,0.151,0.151v2.107c0,0.602,0.452,1.054,0.903,1.054
		c1.505,0.301,2.86,0.903,4.064,1.656c0.452,0.301,1.054,0.301,1.505-0.151l1.505-1.505h0.151h0.151l1.505,1.505v0.151v0.151
		l-1.505,1.505c-0.452,0.452-0.452,1.054-0.151,1.505c0.903,1.204,1.355,2.559,1.656,4.064c0.151,0.602,0.602,0.903,1.054,0.903
		h2.107c0.151,0,0.151,0.151,0.151,0.151v2.258c0,0.151-0.151,0.151-0.151,0.151h-2.107c-0.602,0-1.054,0.452-1.054,0.903
		c-0.301,1.505-0.903,2.86-1.656,4.064c-0.301,0.452-0.301,1.054,0.151,1.505l1.505,1.505v0.151v0.151l-1.505,1.505h-0.151h-0.151
		l-1.505-1.505c-0.452-0.452-1.054-0.452-1.505-0.151c-1.204,0.903-2.559,1.355-4.064,1.656c-0.602,0.151-0.903,0.602-0.903,1.054
		v2.107c0,0.151-0.151,0.151-0.151,0.151h-2.258c-0.151,0-0.151-0.151-0.151-0.151v-2.107c0-0.602-0.452-1.054-0.903-1.054
		C13.263,27.862,11.908,27.26,10.704,26.357L10.704,26.357z"/>
	<path style="fill:#FFFFFF;" d="M23.798,17.025c0-3.763-3.01-6.773-6.773-6.773s-6.773,3.01-6.773,6.773s3.01,6.773,6.773,6.773
		S23.798,20.788,23.798,17.025L23.798,17.025z M12.51,17.025c0-2.559,1.957-4.515,4.515-4.515c2.559,0,4.515,1.957,4.515,4.515
		s-1.957,4.515-4.515,4.515C14.467,21.541,12.51,19.433,12.51,17.025L12.51,17.025z"/>
</g>
</svg>
