<?xml version="1.0" encoding="utf-8"?>
<!-- Generator: Adobe Illustrator 21.0.0, SVG Export Plug-In . SVG Version: 6.00 Build 0)  -->
<svg version="1.1" id="Layer_1" xmlns="http://www.w3.org/2000/svg" xmlns:xlink="http://www.w3.org/1999/xlink" x="0px" y="0px"
	 viewBox="0 0 19.1 16.2" style="enable-background:new 0 0 19.1 16.2;" xml:space="preserve">
<style type="text/css">
	.st0{fill:#6D6D6D;}
</style>
<path class="st0" d="M13.4,12.7l0.1,0c0.3,0,0.6,0,0.9-0.1c1.5-0.3,2.5-1.1,3.1-2.5c0.1-0.3,0.2-0.5,0.2-0.8c0-0.1,0.1-0.3,0.1-0.4
	l0-0.6c0-0.1,0-0.2,0-0.2c0-0.2-0.1-0.3-0.1-0.5c-0.4-1.7-2-2.9-3.7-3c-0.2,0-0.3-0.1-0.3-0.3c-0.3-1.2-1-2-2-2.6
	c-1.4-0.8-2.8-0.8-4.2-0.1C6.2,2.2,5.5,3.1,5.2,4.3C5.1,4.6,5,4.9,5,5.2c0,0.1,0,0.3-0.1,0.4l0,0.1l-0.1,0c0,0-0.1,0-0.1,0
	C3.8,5.7,3,6,2.4,6.7c-1.1,1-1.4,2.7-0.8,4c0.7,1.3,1.8,2,3.3,2.1c0.6,0,1.3,0,1.9,0c0.3,0,0.6,0,0.9,0h0.3v2.4h3.6v-2.4l0.6,0
	C12.6,12.7,13,12.7,13.4,12.7z M10.7,9.7v4.5h-2V9.7H7.5L9.7,7l0.1,0.1l2.1,2.7H10.7z M11.6,11.9l-0.1,0v-1.4h2.1L9.7,5.7L8.9,6.6
	c-1,1.3-2.1,2.6-3.1,3.9h2v1.4l-0.1,0c0,0-0.1,0-0.1,0l-0.8,0c-0.7,0-1.4,0-2.1,0c-1.3,0-2.4-0.9-2.6-2.2C2,8.9,2.2,8,2.9,7.3
	c0.6-0.6,1.5-0.9,2.4-0.8c0.2,0,0.4,0.1,0.5,0.1l0.1,0c0-0.2-0.1-0.4-0.1-0.6c-0.3-2,1-3.8,3-4.1c1-0.1,1.9,0.1,2.7,0.7
	C12.3,3.2,12.8,4,12.9,5c0,0.1,0,0.3,0.1,0.4c0.1,0,0.2,0,0.2,0c0.2,0,0.4,0,0.7,0c1.5,0,2.9,1.3,3.1,2.8c0.1,0.9-0.2,1.9-0.8,2.6
	c-0.6,0.7-1.5,1.1-2.4,1.1c-0.3,0-0.5,0-0.8,0c-0.2,0-0.5,0-0.7,0C12.1,11.9,11.9,11.9,11.6,11.9C11.7,11.9,11.6,11.9,11.6,11.9z"/>
</svg>
