<?xml version="1.0" encoding="utf-8"?>
<!-- Generator: Adobe Illustrator 21.0.0, SVG Export Plug-In . SVG Version: 6.00 Build 0)  -->
<svg version="1.1" id="Layer_1" xmlns="http://www.w3.org/2000/svg" xmlns:xlink="http://www.w3.org/1999/xlink" x="0px" y="0px"
	 viewBox="0 0 48 48" style="enable-background:new 0 0 48 48;" xml:space="preserve">
<style type="text/css">
	.st0{fill:#94A0A8;}
</style>
<g>
	<path class="st0" d="M24,6C14.1,6,6,14.1,6,24c0,9.9,8.1,18,18,18c9.9,0,18-8.1,18-18C42,14.1,33.9,6,24,6L24,6z M24,40.8
		c-9.3,0-16.8-7.5-16.8-16.8c0-9.3,7.5-16.8,16.8-16.8c9.3,0,16.8,7.5,16.8,16.8C40.8,33.3,33.3,40.8,24,40.8L24,40.8z M24,40.8"/>
	<path class="st0" d="M24.6,21.6v-6.1c0-0.3-0.3-0.6-0.6-0.6s-0.6,0.3-0.6,0.6v6.1c-0.8,0.2-1.5,0.9-1.7,1.7h-4.3
		c-0.3,0-0.6,0.3-0.6,0.6c0,0.3,0.3,0.6,0.6,0.6h4.3c0.3,1,1.2,1.8,2.3,1.8c1.3,0,2.4-1.1,2.4-2.4C26.4,22.8,25.6,21.9,24.6,21.6
		L24.6,21.6z M24,25.1c-0.7,0-1.2-0.5-1.2-1.2c0-0.7,0.5-1.2,1.2-1.2c0.7,0,1.2,0.5,1.2,1.2C25.2,24.6,24.7,25.1,24,25.1L24,25.1z
		 M24,25.1"/>
	<path class="st0" d="M24,11.9c0.3,0,0.6-0.3,0.6-0.6v-0.6c0-0.3-0.3-0.6-0.6-0.6s-0.6,0.3-0.6,0.6v0.6C23.4,11.7,23.7,11.9,24,11.9
		L24,11.9z M24,11.9"/>
	<path class="st0" d="M24,35.9c-0.3,0-0.6,0.3-0.6,0.6v0.6c0,0.3,0.3,0.6,0.6,0.6s0.6-0.3,0.6-0.6v-0.6C24.6,36.2,24.3,35.9,24,35.9
		L24,35.9z M24,35.9"/>
	<path class="st0" d="M37.2,23.3h-0.6c-0.3,0-0.6,0.3-0.6,0.6c0,0.3,0.3,0.6,0.6,0.6h0.6c0.3,0,0.6-0.3,0.6-0.6
		C37.8,23.6,37.5,23.3,37.2,23.3L37.2,23.3z M37.2,23.3"/>
	<path class="st0" d="M11.4,23.3h-0.6c-0.3,0-0.6,0.3-0.6,0.6c0,0.3,0.3,0.6,0.6,0.6h0.6c0.3,0,0.6-0.3,0.6-0.6
		C12,23.6,11.7,23.3,11.4,23.3L11.4,23.3z M11.4,23.3"/>
	<path class="st0" d="M32.9,14.2l-0.4,0.4c-0.2,0.2-0.2,0.6,0,0.8c0.1,0.1,0.3,0.2,0.4,0.2c0.2,0,0.3-0.1,0.4-0.2l0.4-0.4
		c0.2-0.2,0.2-0.6,0-0.8C33.5,13.9,33.1,13.9,32.9,14.2L32.9,14.2z M32.9,14.2"/>
	<path class="st0" d="M14.7,32.4l-0.4,0.4c-0.2,0.2-0.2,0.6,0,0.8c0.1,0.1,0.3,0.2,0.4,0.2c0.2,0,0.3-0.1,0.4-0.2l0.4-0.4
		c0.2-0.2,0.2-0.6,0-0.8C15.3,32.2,14.9,32.2,14.7,32.4L14.7,32.4z M14.7,32.4"/>
	<path class="st0" d="M33.3,32.4c-0.2-0.2-0.6-0.2-0.8,0c-0.2,0.2-0.2,0.6,0,0.8l0.4,0.4c0.1,0.1,0.3,0.2,0.4,0.2
		c0.2,0,0.3-0.1,0.4-0.2c0.2-0.2,0.2-0.6,0-0.8L33.3,32.4z M33.3,32.4"/>
	<path class="st0" d="M15.1,14.2c-0.2-0.2-0.6-0.2-0.8,0c-0.2,0.2-0.2,0.6,0,0.8l0.4,0.4c0.1,0.1,0.3,0.2,0.4,0.2
		c0.2,0,0.3-0.1,0.4-0.2c0.2-0.2,0.2-0.6,0-0.8L15.1,14.2z M15.1,14.2"/>
</g>
</svg>
