<?xml version="1.0" encoding="utf-8"?>
<!-- Generator: Adobe Illustrator 21.0.0, SVG Export Plug-In . SVG Version: 6.00 Build 0)  -->
<svg version="1.1" id="Layer_1" xmlns="http://www.w3.org/2000/svg" xmlns:xlink="http://www.w3.org/1999/xlink" x="0px" y="0px"
	 viewBox="0 0 33.9 33.9" style="enable-background:new 0 0 33.9 33.9;" xml:space="preserve">
<style type="text/css">
	.st0{fill:#4cb648;}
	.st1{fill:none;stroke:#4cb648;stroke-miterlimit:10;}
</style>
<g>
	<g>
		<path class="st0" d="M17.4,18.4c1.1,0,2-0.9,2-2s-0.9-2-2-2c-1.1,0-2,0.9-2,2S16.3,18.4,17.4,18.4L17.4,18.4z M17.4,15.4
			c0.6,0,1,0.5,1,1c0,0.6-0.5,1-1,1s-1-0.5-1-1C16.4,15.9,16.8,15.4,17.4,15.4L17.4,15.4z"/>
		<path class="st0" d="M25.4,9.9l-13-1.5c-0.5-0.1-1,0.1-1.4,0.4c-0.4,0.3-0.6,0.7-0.7,1.2L10,12H9.3c-1,0-1.8,0.9-1.8,2v9.8
			c0,1,0.8,1.8,1.8,1.9c0,0,0,0,0.1,0h13.1c1,0,2-0.8,2-1.9v-0.4c0.3-0.1,0.6-0.2,0.9-0.4c0.4-0.3,0.6-0.8,0.7-1.3l1.1-9.7
			C27.2,10.9,26.4,10,25.4,9.9z M9.3,12.9h13.1c0.6,0,1,0.5,1,1v4l-5.2,3c-0.4,0.3-1,0.2-1.4-0.1l-2.6-2.3c-0.8-0.6-1.9-0.7-2.6-0.1
			l-3.1,2.3V14C8.4,13.4,8.8,12.9,9.3,12.9z M22.4,24.6H9.3c-0.5,0-0.9-0.4-0.9-0.8c0,0,0,0,0-0.1v-1.8l3.7-2.7
			c0.4-0.3,1.1-0.3,1.5,0.1l2.6,2.3c0.4,0.3,0.9,0.5,1.4,0.5c0.4,0,0.8-0.1,1.1-0.3l4.7-2.7v4.6C23.4,24.2,22.9,24.6,22.4,24.6z
			 M26.1,11.9L25,21.5c0,0.3-0.1,0.5-0.3,0.6c-0.1,0.1-0.3,0.1-0.3,0.2V14c0-1.1-0.9-2-2-2H11l0.2-1.9c0-0.2,0.2-0.5,0.4-0.6
			c0.2-0.1,0.5-0.2,0.7-0.2l13,1.5C25.8,10.9,26.2,11.3,26.1,11.9C26.1,11.9,26.1,11.9,26.1,11.9z"/>
	</g>
	<circle class="st1" cx="17" cy="17" r="16.5"/>
</g>
</svg>
