<?xml version="1.0" encoding="utf-8"?>
<!-- Generator: Adobe Illustrator 21.0.0, SVG Export Plug-In . SVG Version: 6.00 Build 0)  -->
<svg version="1.1" id="Layer_1" xmlns="http://www.w3.org/2000/svg" xmlns:xlink="http://www.w3.org/1999/xlink" x="0px" y="0px"
	 viewBox="0 0 33.9 33.9" style="enable-background:new 0 0 33.9 33.9;" xml:space="preserve">
<style type="text/css">
	.st0{fill:none;stroke:#FFFFFF;stroke-miterlimit:10;}
	.st1{fill:#FFFFFF;}
</style>
<circle class="st0" cx="17" cy="17" r="16.5"/>
<g>
	<path class="st1" d="M21.3,14.4l-5,4.4c0,0,0,0,0,0c-0.2,0.2-0.2,0.4-0.2,0.6c0,0.5,0.4,0.8,0.8,0.8c0.2,0,0.4-0.1,0.6-0.3l4.4-5
		c0.1-0.2,0.1-0.4,0-0.6C21.8,14.2,21.5,14.2,21.3,14.4z"/>
	<path class="st1" d="M17,9.2c-5.6,0-10.2,4.6-10.2,10.2c0,1.1,0.2,2.1,0.5,3.1c0.1,0.2,0.2,0.3,0.4,0.3h18.6c0.2,0,0.3-0.1,0.4-0.3
		c0.3-1,0.5-2,0.5-3.1C27.1,13.7,22.6,9.2,17,9.2z M25.9,21.9H8c-0.2-0.7-0.3-1.4-0.3-2.1h1.2c0.2,0,0.4-0.2,0.4-0.4
		c0-0.2-0.2-0.4-0.4-0.4H7.7c0.1-1.4,0.4-2.7,1-3.9l1.1,0.6c0.1,0,0.1,0.1,0.2,0.1c0.1,0,0.3-0.1,0.4-0.2c0.1-0.2,0-0.5-0.2-0.6
		l-1.1-0.6c0.7-1.1,1.7-2.1,2.8-2.8l0.6,1.1c0.1,0.1,0.2,0.2,0.4,0.2c0.1,0,0.1,0,0.2-0.1c0.2-0.1,0.3-0.4,0.2-0.6l-0.6-1.1
		c1.2-0.6,2.5-1,3.9-1v1.2c0,0.2,0.2,0.4,0.4,0.4s0.4-0.2,0.4-0.4v-1.2c1.4,0.1,2.7,0.4,3.9,1l-0.6,1.1c-0.1,0.2,0,0.5,0.2,0.6
		c0.1,0,0.1,0.1,0.2,0.1c0.1,0,0.3-0.1,0.4-0.2l0.6-1.1c1.1,0.7,2.1,1.7,2.8,2.8L23.7,15c-0.2,0.1-0.3,0.4-0.2,0.6
		c0.1,0.1,0.2,0.2,0.4,0.2c0.1,0,0.1,0,0.2-0.1l1.1-0.6c0.6,1.2,1,2.5,1,3.9H25c-0.2,0-0.4,0.2-0.4,0.4c0,0.2,0.2,0.4,0.4,0.4h1.2
		C26.2,20.5,26.1,21.2,25.9,21.9z"/>
</g>
</svg>
