<?xml version="1.0" encoding="utf-8"?>
<!-- Generator: Adobe Illustrator 21.0.0, SVG Export Plug-In . SVG Version: 6.00 Build 0)  -->
<svg version="1.1" id="Layer_1" xmlns="http://www.w3.org/2000/svg" xmlns:xlink="http://www.w3.org/1999/xlink" x="0px" y="0px"
	 viewBox="0 0 33.9 33.9" style="enable-background:new 0 0 33.9 33.9;" xml:space="preserve">
<style type="text/css">
	.st0{fill:none;stroke:#FFFFFF;stroke-miterlimit:10;}
	.st1{fill:#FFFFFF;}
</style>
<g>
	<circle class="st0" cx="17" cy="17" r="16.5"/>
	<path class="st1" d="M21.2,6.6h-10c-0.7,0-1.2,0.5-1.2,1.2v17.5c0,0.7,0.5,1.2,1.2,1.2h12.3c0.7,0,1.2-0.5,1.2-1.2V10.4L21.2,6.6z
		 M21.5,8.4l1.5,1.7h-1.5V8.4z M23.6,25.3c0,0.1-0.1,0.2-0.2,0.2H11.1c-0.1,0-0.2-0.1-0.2-0.2V7.8c0-0.1,0.1-0.2,0.2-0.2h9.3v3
		c0,0.3,0.2,0.5,0.5,0.5h2.7V25.3z M12.8,12h8.7c0.2,0,0.4,0.2,0.4,0.4c0,0.2-0.2,0.4-0.4,0.4h-8.7c-0.2,0-0.4-0.2-0.4-0.4
		C12.4,12.2,12.5,12,12.8,12L12.8,12z M21.9,15c0,0.2-0.2,0.4-0.4,0.4h-8.7c-0.2,0-0.4-0.2-0.4-0.4c0-0.2,0.2-0.4,0.4-0.4h8.7
		C21.7,14.6,21.9,14.8,21.9,15L21.9,15z M21.9,17.5c0,0.2-0.2,0.4-0.4,0.4h-8.7c-0.2,0-0.4-0.2-0.4-0.4c0-0.2,0.2-0.4,0.4-0.4h8.7
		C21.7,17.1,21.9,17.3,21.9,17.5L21.9,17.5z M21.9,20c0,0.2-0.2,0.4-0.4,0.4h-8.7c-0.2,0-0.4-0.2-0.4-0.4c0-0.2,0.2-0.4,0.4-0.4h8.7
		C21.7,19.7,21.9,19.8,21.9,20L21.9,20z M21.9,20"/>
</g>
</svg>
