<?xml version="1.0" encoding="utf-8"?>
<!-- Generator: Adobe Illustrator 21.0.0, SVG Export Plug-In . SVG Version: 6.00 Build 0)  -->
<svg version="1.1" id="Layer_1" xmlns="http://www.w3.org/2000/svg" xmlns:xlink="http://www.w3.org/1999/xlink" x="0px" y="0px"
	 viewBox="0 0 33.9 33.9" style="enable-background:new 0 0 33.9 33.9;" xml:space="preserve">
<style type="text/css">
	.st0{fill:none;stroke:#4cb648;stroke-miterlimit:10;}
	.st1{fill:#4cb648;}
</style>
<g>
	<circle class="st0" cx="17" cy="17" r="16.5"/>
	<g>
		<path class="st1" d="M28,21c0,0.3-0.2,0.6-0.6,0.6l-2.8,0c-0.3,0-0.6-0.2-0.6-0.6c0-0.3,0.2-0.6,0.6-0.6l2.8,0
			C27.8,20.5,28,20.7,28,21"/>
		<path class="st1" d="M27.1,18c0.1,0.3,0,0.6-0.3,0.7l-2.5,1.2c-0.3,0.1-0.6,0-0.7-0.3c-0.1-0.3,0-0.6,0.3-0.7l2.5-1.2
			C26.7,17.6,27,17.7,27.1,18"/>
		<path class="st1" d="M27.2,24.1c0.1-0.3,0-0.6-0.3-0.7l-2.5-1.2c-0.3-0.1-0.6,0-0.7,0.3c-0.1,0.3,0,0.6,0.3,0.7l2.5,1.2
			C26.7,24.5,27,24.4,27.2,24.1"/>
	</g>
	<path class="st0" d="M23.6,16.1c-0.8-0.2-1.5-0.9-1.8-1.3c-0.4-0.7,0.1-0.8-0.1-2.7c-0.2-1.7-2.5-3.6-5.4-3.8
		c-1.3-0.1-2.7,0.2-4.1,0.9c-3.6,2-5,6.1-2.2,10.1c2.5,3.6,0.2,5.2,0.2,5.2s0.1,0.8,1.6,1.8c1.5,1,3.4,0.3,3.4,0.3s0.6-2.2,2.7-2
		c1.5,0.2,3.5-0.1,4-0.6c0.5-0.5-0.1-1.1,0.3-2.4c-1.3-0.1-2-0.8-2.1-1.6c1.5,0.1,2.1-0.3,2.5-0.8c0-0.3,0-0.9-0.1-1.4
		C23.9,17.6,24.4,16.3,23.6,16.1"/>
</g>
</svg>
