{
  "title" : "",
  "description" : "",
  "author" : "",
  "targetLoudness" : -18.0,
  "shouldApplyLoudnessNormalization" : true,
  "videoFormatFrameRate" : 30,
  "audioFormatSampleRate" : 44100,
  "width" : 1920.0,
  "height" : 1080.0,
  "version" : "3.0",
  "editRate" : 30,
  "authoringClientName" :  {
    "name" : "Camtasia",
    "platform" : "Windows",
    "version" : "19.0"
  },
  "sourceBin" : [
    {
      "id" : 1,
      "src" : "C:\\Users\\Hasan\\Documents\\Camtasia\\Rec 08-12-20.trec",
      "rect" : [0, 0, 1920, 936],
      "lastMod" : "20200812T125808",
      "sourceTracks" : [
        {
          "range" : [0, 1145],
          "type" : 0,
          "editRate" : 30,
          "trackRect" : [0, 0, 1920, 936],
          "sampleRate" : 29,
          "bitDepth" : 0,
          "numChannels" : 0,
          "integratedLUFS" : 100.0,
          "peakLevel" : -1.0,
          "metaData" : "2b7b6a00-7a1f-11e2-83d0-0017f200be7f;2b7b6aef-7a1f-11e2-83d0-0017f200be7f;2b7b6af0-7a1f-11e2-83d0-0017f200be7f;2b7b6af1-7a1f-11e2-83d0-0017f200be7f;2b7b6af2-7a1f-11e2-83d0-0017f200be7f;2b7b6af3-7a1f-11e2-83d0-0017f200be7f;2b7b6af5-7a1f-11e2-83d0-0017f200be7f;2b7b6af6-7a1f-11e2-83d0-0017f200be7f;2b7b6af7-7a1f-11e2-83d0-0017f200be7f;2b7b6af8-7a1f-11e2-83d0-0017f200be7f;2b7b6af9-7a1f-11e2-83d0-0017f200be7f;2b7b6afa-7a1f-11e2-83d0-0017f200be7f;"
        }
      ]
    },
    {
      "id" : 2,
      "src" : "C:\\Users\\Hasan\\Documents\\Camtasia\\Rec 08-12-20_001.trec",
      "rect" : [0, 0, 1920, 936],
      "lastMod" : "20200812T125943",
      "sourceTracks" : [
        {
          "range" : [0, 651],
          "type" : 0,
          "editRate" : 30,
          "trackRect" : [0, 0, 1920, 936],
          "sampleRate" : 28,
          "bitDepth" : 0,
          "numChannels" : 0,
          "integratedLUFS" : 100.0,
          "peakLevel" : -1.0,
          "metaData" : "2b7b6a00-7a1f-11e2-83d0-0017f200be7f;2b7b6aef-7a1f-11e2-83d0-0017f200be7f;2b7b6af0-7a1f-11e2-83d0-0017f200be7f;2b7b6af1-7a1f-11e2-83d0-0017f200be7f;2b7b6af2-7a1f-11e2-83d0-0017f200be7f;2b7b6af3-7a1f-11e2-83d0-0017f200be7f;2b7b6af5-7a1f-11e2-83d0-0017f200be7f;2b7b6af6-7a1f-11e2-83d0-0017f200be7f;2b7b6af7-7a1f-11e2-83d0-0017f200be7f;2b7b6af8-7a1f-11e2-83d0-0017f200be7f;2b7b6af9-7a1f-11e2-83d0-0017f200be7f;2b7b6afa-7a1f-11e2-83d0-0017f200be7f;"
        }
      ]
    },
    {
      "id" : 3,
      "src" : "C:\\Users\\Hasan\\Documents\\Camtasia\\Rec 08-12-20_002.trec",
      "rect" : [0, 0, 1920, 936],
      "lastMod" : "20200812T130056",
      "sourceTracks" : [
        {
          "range" : [0, 665],
          "type" : 0,
          "editRate" : 30,
          "trackRect" : [0, 0, 1920, 936],
          "sampleRate" : 29,
          "bitDepth" : 0,
          "numChannels" : 0,
          "integratedLUFS" : 100.0,
          "peakLevel" : -1.0,
          "metaData" : "2b7b6a00-7a1f-11e2-83d0-0017f200be7f;2b7b6aef-7a1f-11e2-83d0-0017f200be7f;2b7b6af0-7a1f-11e2-83d0-0017f200be7f;2b7b6af1-7a1f-11e2-83d0-0017f200be7f;2b7b6af2-7a1f-11e2-83d0-0017f200be7f;2b7b6af3-7a1f-11e2-83d0-0017f200be7f;2b7b6af5-7a1f-11e2-83d0-0017f200be7f;2b7b6af6-7a1f-11e2-83d0-0017f200be7f;2b7b6af7-7a1f-11e2-83d0-0017f200be7f;2b7b6af8-7a1f-11e2-83d0-0017f200be7f;2b7b6af9-7a1f-11e2-83d0-0017f200be7f;2b7b6afa-7a1f-11e2-83d0-0017f200be7f;"
        }
      ]
    },
    {
      "id" : 4,
      "src" : "C:\\Users\\Hasan\\Documents\\Camtasia\\Rec 08-12-20_003.trec",
      "rect" : [0, 0, 1920, 936],
      "lastMod" : "20200812T130222",
      "sourceTracks" : [
        {
          "range" : [0, 1081],
          "type" : 0,
          "editRate" : 30,
          "trackRect" : [0, 0, 1920, 936],
          "sampleRate" : 29,
          "bitDepth" : 0,
          "numChannels" : 0,
          "integratedLUFS" : 100.0,
          "peakLevel" : -1.0,
          "metaData" : "2b7b6a00-7a1f-11e2-83d0-0017f200be7f;2b7b6aef-7a1f-11e2-83d0-0017f200be7f;2b7b6af0-7a1f-11e2-83d0-0017f200be7f;2b7b6af1-7a1f-11e2-83d0-0017f200be7f;2b7b6af2-7a1f-11e2-83d0-0017f200be7f;2b7b6af3-7a1f-11e2-83d0-0017f200be7f;2b7b6af5-7a1f-11e2-83d0-0017f200be7f;2b7b6af6-7a1f-11e2-83d0-0017f200be7f;2b7b6af7-7a1f-11e2-83d0-0017f200be7f;2b7b6af8-7a1f-11e2-83d0-0017f200be7f;2b7b6af9-7a1f-11e2-83d0-0017f200be7f;2b7b6afa-7a1f-11e2-83d0-0017f200be7f;"
        }
      ]
    },
    {
      "id" : 5,
      "src" : "C:\\Users\\Hasan\\Documents\\Camtasia\\Rec 08-12-20_004.trec",
      "rect" : [0, 0, 1920, 936],
      "lastMod" : "20200812T130303",
      "sourceTracks" : [
        {
          "range" : [0, 392],
          "type" : 0,
          "editRate" : 30,
          "trackRect" : [0, 0, 1920, 936],
          "sampleRate" : 28,
          "bitDepth" : 0,
          "numChannels" : 0,
          "integratedLUFS" : 100.0,
          "peakLevel" : -1.0,
          "metaData" : "2b7b6a00-7a1f-11e2-83d0-0017f200be7f;2b7b6aef-7a1f-11e2-83d0-0017f200be7f;2b7b6af0-7a1f-11e2-83d0-0017f200be7f;2b7b6af1-7a1f-11e2-83d0-0017f200be7f;2b7b6af2-7a1f-11e2-83d0-0017f200be7f;2b7b6af3-7a1f-11e2-83d0-0017f200be7f;2b7b6af5-7a1f-11e2-83d0-0017f200be7f;2b7b6af6-7a1f-11e2-83d0-0017f200be7f;2b7b6af7-7a1f-11e2-83d0-0017f200be7f;2b7b6af8-7a1f-11e2-83d0-0017f200be7f;2b7b6af9-7a1f-11e2-83d0-0017f200be7f;2b7b6afa-7a1f-11e2-83d0-0017f200be7f;"
        }
      ]
    },
    {
      "id" : 6,
      "src" : "C:\\Users\\Hasan\\Documents\\Camtasia\\Rec 08-12-20_005.trec",
      "rect" : [0, 0, 1920, 936],
      "lastMod" : "20200812T130628",
      "sourceTracks" : [
        {
          "range" : [0, 1202],
          "type" : 0,
          "editRate" : 30,
          "trackRect" : [0, 0, 1920, 936],
          "sampleRate" : 28,
          "bitDepth" : 0,
          "numChannels" : 0,
          "integratedLUFS" : 100.0,
          "peakLevel" : -1.0,
          "metaData" : "2b7b6a00-7a1f-11e2-83d0-0017f200be7f;2b7b6aef-7a1f-11e2-83d0-0017f200be7f;2b7b6af0-7a1f-11e2-83d0-0017f200be7f;2b7b6af1-7a1f-11e2-83d0-0017f200be7f;2b7b6af2-7a1f-11e2-83d0-0017f200be7f;2b7b6af3-7a1f-11e2-83d0-0017f200be7f;2b7b6af5-7a1f-11e2-83d0-0017f200be7f;2b7b6af6-7a1f-11e2-83d0-0017f200be7f;2b7b6af7-7a1f-11e2-83d0-0017f200be7f;2b7b6af8-7a1f-11e2-83d0-0017f200be7f;2b7b6af9-7a1f-11e2-83d0-0017f200be7f;2b7b6afa-7a1f-11e2-83d0-0017f200be7f;"
        }
      ]
    }
  ],
  "timeline" : {
    "id" : 7,
    "sceneTrack" : {
      "scenes" : [
        {
          "duration" : 206.166666666667,
          "title" : "",
          "type" : "",
          "csml" : {
            "tracks" : [
              {
                "trackIndex" : 0,
                "medias" : [
                  {
                    "id" : 8,
                    "_type" : "ScreenVMFile",
                    "src" : 1,
                    "trackNumber" : 0,
                    "attributes" : {
                      "ident" : "Rec 08-12-20"
                    },
                    "parameters" : {
                      "cursorScale" : {
                        "type" : "double",
                        "defaultValue" : 1.0,
                        "interp" : "linr"
                      },
                      "cursorOpacity" : {
                        "type" : "double",
                        "defaultValue" : 1.0,
                        "interp" : "linr"
                      }
                    },
                    "effects" : [

                    ],
                    "start" : 150,
                    "duration" : 492,
                    "mediaStart" : 0,
                    "mediaDuration" : 492,
                    "scalar" : 1,
                    "metadata" : {
                      "AutoAppliedSmartFocus" : "False",
                      "clipSpeedAttribute" : false
                    },
                    "animationTracks" : {

                    }
                  },
                  {
                    "id" : 9,
                    "_type" : "ScreenVMFile",
                    "src" : 1,
                    "trackNumber" : 0,
                    "attributes" : {
                      "ident" : "Rec 08-12-20"
                    },
                    "parameters" : {
                      "cursorScale" : {
                        "type" : "double",
                        "defaultValue" : 1.0,
                        "interp" : "linr"
                      },
                      "cursorOpacity" : {
                        "type" : "double",
                        "defaultValue" : 1.0,
                        "interp" : "linr"
                      }
                    },
                    "effects" : [

                    ],
                    "start" : 792,
                    "duration" : 653,
                    "mediaStart" : 492,
                    "mediaDuration" : 653,
                    "scalar" : 1,
                    "metadata" : {
                      "AutoAppliedSmartFocus" : "False",
                      "clipSpeedAttribute" : false
                    },
                    "animationTracks" : {

                    }
                  },
                  {
                    "id" : 10,
                    "_type" : "ScreenVMFile",
                    "src" : 2,
                    "trackNumber" : 0,
                    "attributes" : {
                      "ident" : "Rec 08-12-20_001"
                    },
                    "parameters" : {
                      "cursorScale" : {
                        "type" : "double",
                        "defaultValue" : 1.0,
                        "interp" : "linr"
                      },
                      "cursorOpacity" : {
                        "type" : "double",
                        "defaultValue" : 1.0,
                        "interp" : "linr"
                      }
                    },
                    "effects" : [

                    ],
                    "start" : 1594,
                    "duration" : 651,
                    "mediaStart" : 0,
                    "mediaDuration" : 651,
                    "scalar" : 1,
                    "metadata" : {
                      "AutoAppliedSmartFocus" : "False",
                      "clipSpeedAttribute" : false
                    },
                    "animationTracks" : {

                    }
                  },
                  {
                    "id" : 11,
                    "_type" : "ScreenVMFile",
                    "src" : 3,
                    "trackNumber" : 0,
                    "attributes" : {
                      "ident" : "Rec 08-12-20_002"
                    },
                    "parameters" : {
                      "cursorScale" : {
                        "type" : "double",
                        "defaultValue" : 1.0,
                        "interp" : "linr"
                      },
                      "cursorOpacity" : {
                        "type" : "double",
                        "defaultValue" : 1.0,
                        "interp" : "linr"
                      }
                    },
                    "effects" : [

                    ],
                    "start" : 2395,
                    "duration" : 665,
                    "mediaStart" : 0,
                    "mediaDuration" : 665,
                    "scalar" : 1,
                    "metadata" : {
                      "AutoAppliedSmartFocus" : "False",
                      "clipSpeedAttribute" : false
                    },
                    "animationTracks" : {

                    }
                  },
                  {
                    "id" : 12,
                    "_type" : "ScreenVMFile",
                    "src" : 6,
                    "trackNumber" : 0,
                    "attributes" : {
                      "ident" : "Rec 08-12-20_005"
                    },
                    "parameters" : {
                      "cursorScale" : {
                        "type" : "double",
                        "defaultValue" : 1.0,
                        "interp" : "linr"
                      },
                      "cursorOpacity" : {
                        "type" : "double",
                        "defaultValue" : 1.0,
                        "interp" : "linr"
                      }
                    },
                    "effects" : [

                    ],
                    "start" : 3210,
                    "duration" : 1202,
                    "mediaStart" : 0,
                    "mediaDuration" : 1202,
                    "scalar" : 1,
                    "metadata" : {
                      "AutoAppliedSmartFocus" : "False",
                      "clipSpeedAttribute" : false
                    },
                    "animationTracks" : {

                    }
                  },
                  {
                    "id" : 13,
                    "_type" : "ScreenVMFile",
                    "src" : 4,
                    "trackNumber" : 0,
                    "attributes" : {
                      "ident" : "Rec 08-12-20_003"
                    },
                    "parameters" : {
                      "cursorScale" : {
                        "type" : "double",
                        "defaultValue" : 1.0,
                        "interp" : "linr"
                      },
                      "cursorOpacity" : {
                        "type" : "double",
                        "defaultValue" : 1.0,
                        "interp" : "linr"
                      }
                    },
                    "effects" : [

                    ],
                    "start" : 4562,
                    "duration" : 1081,
                    "mediaStart" : 0,
                    "mediaDuration" : 1081,
                    "scalar" : 1,
                    "metadata" : {
                      "AutoAppliedSmartFocus" : "False",
                      "clipSpeedAttribute" : false
                    },
                    "animationTracks" : {

                    }
                  },
                  {
                    "id" : 14,
                    "_type" : "ScreenVMFile",
                    "src" : 5,
                    "trackNumber" : 0,
                    "attributes" : {
                      "ident" : "Rec 08-12-20_004"
                    },
                    "parameters" : {
                      "cursorScale" : {
                        "type" : "double",
                        "defaultValue" : 1.0,
                        "interp" : "linr"
                      },
                      "cursorOpacity" : {
                        "type" : "double",
                        "defaultValue" : 1.0,
                        "interp" : "linr"
                      }
                    },
                    "effects" : [

                    ],
                    "start" : 5793,
                    "duration" : 392,
                    "mediaStart" : 0,
                    "mediaDuration" : 392,
                    "scalar" : 1,
                    "metadata" : {
                      "AutoAppliedSmartFocus" : "False",
                      "clipSpeedAttribute" : false
                    },
                    "animationTracks" : {

                    }
                  }
                ],
                "transitions" : [
                  {
                    "name" : "Fade",
                    "duration" : 30,
                    "trivial" : false,
                    "reverse" : false,
                    "useAudioPreRoll" : true,
                    "useVisualPreRoll" : true,
                    "rightMedia" : 8
                  },
                  {
                    "name" : "Fade",
                    "duration" : 30,
                    "trivial" : false,
                    "reverse" : false,
                    "useAudioPreRoll" : true,
                    "useVisualPreRoll" : true,
                    "leftMedia" : 8
                  },
                  {
                    "name" : "Fade",
                    "duration" : 30,
                    "trivial" : false,
                    "reverse" : false,
                    "useAudioPreRoll" : true,
                    "useVisualPreRoll" : true,
                    "rightMedia" : 9
                  },
                  {
                    "name" : "Fade",
                    "duration" : 30,
                    "trivial" : false,
                    "reverse" : false,
                    "useAudioPreRoll" : true,
                    "useVisualPreRoll" : true,
                    "leftMedia" : 9
                  },
                  {
                    "name" : "Fade",
                    "duration" : 30,
                    "trivial" : false,
                    "reverse" : false,
                    "useAudioPreRoll" : true,
                    "useVisualPreRoll" : true,
                    "rightMedia" : 10
                  },
                  {
                    "name" : "Fade",
                    "duration" : 30,
                    "trivial" : false,
                    "reverse" : false,
                    "useAudioPreRoll" : true,
                    "useVisualPreRoll" : true,
                    "leftMedia" : 10
                  },
                  {
                    "name" : "Fade",
                    "duration" : 30,
                    "trivial" : false,
                    "reverse" : false,
                    "useAudioPreRoll" : true,
                    "useVisualPreRoll" : true,
                    "rightMedia" : 11
                  },
                  {
                    "name" : "Fade",
                    "duration" : 30,
                    "trivial" : false,
                    "reverse" : false,
                    "useAudioPreRoll" : true,
                    "useVisualPreRoll" : true,
                    "leftMedia" : 11
                  },
                  {
                    "name" : "Fade",
                    "duration" : 30,
                    "trivial" : false,
                    "reverse" : false,
                    "useAudioPreRoll" : true,
                    "useVisualPreRoll" : true,
                    "rightMedia" : 12
                  },
                  {
                    "name" : "Fade",
                    "duration" : 30,
                    "trivial" : false,
                    "reverse" : false,
                    "useAudioPreRoll" : true,
                    "useVisualPreRoll" : true,
                    "leftMedia" : 12
                  },
                  {
                    "name" : "Fade",
                    "duration" : 30,
                    "trivial" : false,
                    "reverse" : false,
                    "useAudioPreRoll" : true,
                    "useVisualPreRoll" : true,
                    "rightMedia" : 13
                  },
                  {
                    "name" : "Fade",
                    "duration" : 30,
                    "trivial" : false,
                    "reverse" : false,
                    "useAudioPreRoll" : true,
                    "useVisualPreRoll" : true,
                    "leftMedia" : 13
                  },
                  {
                    "name" : "Fade",
                    "duration" : 30,
                    "trivial" : false,
                    "reverse" : false,
                    "useAudioPreRoll" : true,
                    "useVisualPreRoll" : true,
                    "rightMedia" : 14
                  },
                  {
                    "name" : "Fade",
                    "duration" : 30,
                    "trivial" : false,
                    "reverse" : false,
                    "useAudioPreRoll" : true,
                    "useVisualPreRoll" : true,
                    "leftMedia" : 14
                  }
                ]
              },
              {
                "trackIndex" : 1,
                "medias" : [
                  {
                    "id" : 15,
                    "_type" : "Group",
                    "parameters" : {
                      "translation0" : -2.81829670711886e-10,
                      "translation1" : 2.09183781407773e-11,
                      "volume" : 1.0
                    },
                    "tracks" : [
                      {
                        "trackIndex" : 0,
                        "medias" : [
                          {
                            "id" : 16,
                            "_type" : "Callout",
                            "def" : {
                              "kind" : "remix",
                              "shape" : "shape-rectangle",
                              "style" : "basic",
                              "fill-color-blue" : 1.0,
                              "fill-color-green" : 1.0,
                              "fill-color-opacity" : 1.0,
                              "fill-color-red" : 1.0,
                              "height" : 1080.00000000014,
                              "stroke-color-blue" : 1.0,
                              "stroke-color-green" : 1.0,
                              "stroke-color-opacity" : 1.0,
                              "stroke-color-red" : 1.0,
                              "stroke-width" : 0.0,
                              "width" : 1920.00000000039,
                              "fill-style" : "solid",
                              "stroke-style" : "solid"
                            },
                            "attributes" : {
                              "autoRotateText" : true
                            },
                            "parameters" : {
                              "translation1" : -5.6843418860808e-14
                            },
                            "effects" : [

                            ],
                            "start" : 0,
                            "duration" : 150,
                            "mediaStart" : 0,
                            "mediaDuration" : 150,
                            "scalar" : 1,
                            "metadata" : {
                              "clipSpeedAttribute" : false
                            },
                            "animationTracks" : {

                            }
                          }
                        ],
                          "ident" : "",
                          "audioMuted" : false,
                          "videoHidden" : false,
                          "magnetic" : false,
                          "metadata" : {
                            "IsLocked" : "False",
                            "WinTrackHeight" : "0"
                          }
                      },
                      {
                        "trackIndex" : 1,
                        "medias" : [
                          {
                            "id" : 17,
                            "_type" : "Callout",
                            "def" : {
                              "kind" : "remix",
                              "shape" : "text",
                              "style" : "basic",
                              "height" : 466.279069767525,
                              "line-spacing" : 0.0,
                              "width" : 1202.32558139535,
                              "word-wrap" : 1.0,
                              "horizontal-alignment" : "center",
                              "resize-behavior" : "resizeText",
                              "text" : "Documents",
                              "vertical-alignment" : "center",
                              "font" : {
                                "color-blue" : 1.0,
                                "color-green" : 1.0,
                                "color-red" : 1.0,
                                "size" : 96.0,
                                "tracking" : 0.0,
                                "name" : "Montserrat",
                                "weight" : "Regular"
                              },
                              "textAttributes" : {
                                "type" : "textAttributeList",
                                "keyframes" : [
                                  {
                                    "endTime" : 0,
                                    "time" : 0,
                                    "value" : [{"name":"kerning","rangeEnd":9,"rangeStart":0,"value":0,"valueType":"double"},{"name":"fontItalic","rangeEnd":9,"rangeStart":0,"value":0,"valueType":"int"},{"name":"fontName","rangeEnd":9,"rangeStart":0,"value":"Montserrat","valueType":"string"},{"name":"fgColor","rangeEnd":9,"rangeStart":0,"value":"(0,174,141,255)","valueType":"color"},{"name":"strikethrough","rangeEnd":9,"rangeStart":0,"value":0,"valueType":"int"},{"name":"underline","rangeEnd":9,"rangeStart":0,"value":0,"valueType":"int"},{"name":"fontSize","rangeEnd":9,"rangeStart":0,"value":96,"valueType":"double"},{"name":"fontWeight","rangeEnd":9,"rangeStart":0,"value":400,"valueType":"int"}],
                                    "duration" : 0
                                  }
                                ]
                              }
                            },
                            "attributes" : {
                              "autoRotateText" : true
                            },
                            "parameters" : {
                              "translation0" : 0.337209302071049,
                              "translation1" : 0.360465116255867
                            },
                            "effects" : [

                            ],
                            "start" : 0,
                            "duration" : 150,
                            "mediaStart" : 0,
                            "mediaDuration" : 150,
                            "scalar" : 1,
                            "metadata" : {
                              "clipSpeedAttribute" : false,
                              "default-HAlign" : "center",
                              "default-LineSpace" : 0.0,
                              "default-VAlign" : "center",
                              "default-text-attributes" : null,
                              "default-translation0" : 171.0,
                              "default-translation1" : 0.0
                            },
                            "animationTracks" : {

                            }
                          }
                        ],
                          "ident" : "",
                          "audioMuted" : false,
                          "videoHidden" : false,
                          "magnetic" : false,
                          "metadata" : {
                            "IsLocked" : "False",
                            "WinTrackHeight" : "1.57774730333235e-312"
                          }
                      }
                    ],
                    "attributes" : {
                      "ident" : "Group 1",
                      "gain" : 1.0,
                      "mixToMono" : false
                    },
                    "effects" : [

                    ],
                    "start" : 0,
                    "duration" : 150,
                    "mediaStart" : 0.0,
                    "mediaDuration" : 150.0,
                    "scalar" : 1,
                    "metadata" : {
                      "IsGroupExpanded" : "False"
                    },
                    "animationTracks" : {

                    }
                  },
                  {
                    "id" : 18,
                    "_type" : "Group",
                    "parameters" : {
                      "translation0" : {
                        "type" : "double",
                        "defaultValue" : -2.81829670711886e-10,
                        "interp" : "eioe"
                      },
                      "translation1" : {
                        "type" : "double",
                        "defaultValue" : 2.09183781407773e-11,
                        "interp" : "eioe"
                      },
                      "volume" : 1.0
                    },
                    "tracks" : [
                      {
                        "trackIndex" : 0,
                        "medias" : [
                          {
                            "id" : 19,
                            "_type" : "Callout",
                            "def" : {
                              "kind" : "remix",
                              "shape" : "shape-rectangle",
                              "style" : "basic",
                              "fill-color-blue" : {
                                "type" : "double",
                                "defaultValue" : 1.0,
                                "interp" : "linr"
                              },
                              "fill-color-green" : {
                                "type" : "double",
                                "defaultValue" : 1.0,
                                "interp" : "linr"
                              },
                              "fill-color-opacity" : {
                                "type" : "double",
                                "defaultValue" : 1.0,
                                "interp" : "linr"
                              },
                              "fill-color-red" : {
                                "type" : "double",
                                "defaultValue" : 1.0,
                                "interp" : "linr"
                              },
                              "height" : {
                                "type" : "double",
                                "defaultValue" : 1080.00000000014,
                                "interp" : "linr"
                              },
                              "stroke-color-blue" : {
                                "type" : "double",
                                "defaultValue" : 1.0,
                                "interp" : "linr"
                              },
                              "stroke-color-green" : {
                                "type" : "double",
                                "defaultValue" : 1.0,
                                "interp" : "linr"
                              },
                              "stroke-color-opacity" : {
                                "type" : "double",
                                "defaultValue" : 1.0,
                                "interp" : "linr"
                              },
                              "stroke-color-red" : {
                                "type" : "double",
                                "defaultValue" : 1.0,
                                "interp" : "linr"
                              },
                              "stroke-width" : {
                                "type" : "double",
                                "defaultValue" : 0.0,
                                "interp" : "linr"
                              },
                              "width" : {
                                "type" : "double",
                                "defaultValue" : 1920.00000000039,
                                "interp" : "linr"
                              },
                              "fill-style" : "solid",
                              "stroke-style" : "solid"
                            },
                            "attributes" : {
                              "autoRotateText" : true
                            },
                            "parameters" : {
                              "translation1" : {
                                "type" : "double",
                                "defaultValue" : -5.6843418860808e-14,
                                "interp" : "eioe"
                              }
                            },
                            "effects" : [

                            ],
                            "start" : 0,
                            "duration" : 150,
                            "mediaStart" : 0,
                            "mediaDuration" : 150,
                            "scalar" : 1,
                            "metadata" : {
                              "clipSpeedAttribute" : false
                            },
                            "animationTracks" : {

                            }
                          }
                        ],
                          "ident" : "",
                          "audioMuted" : false,
                          "videoHidden" : false,
                          "magnetic" : false,
                          "metadata" : {
                            "IsLocked" : "False",
                            "WinTrackHeight" : "0"
                          }
                      },
                      {
                        "trackIndex" : 1,
                        "medias" : [
                          {
                            "id" : 20,
                            "_type" : "Callout",
                            "def" : {
                              "kind" : "remix",
                              "shape" : "text",
                              "style" : "basic",
                              "height" : {
                                "type" : "double",
                                "defaultValue" : 466.279069767525,
                                "interp" : "linr"
                              },
                              "line-spacing" : {
                                "type" : "double",
                                "defaultValue" : 0.0,
                                "interp" : "linr"
                              },
                              "width" : {
                                "type" : "double",
                                "defaultValue" : 1202.32558139535,
                                "interp" : "linr"
                              },
                              "word-wrap" : {
                                "type" : "double",
                                "defaultValue" : 1.0,
                                "interp" : "linr"
                              },
                              "horizontal-alignment" : "center",
                              "resize-behavior" : "resizeText",
                              "text" : "Barcode",
                              "vertical-alignment" : "center",
                              "font" : {
                                "color-blue" : {
                                  "type" : "double",
                                  "defaultValue" : 1.0,
                                  "interp" : "linr"
                                },
                                "color-green" : {
                                  "type" : "double",
                                  "defaultValue" : 1.0,
                                  "interp" : "linr"
                                },
                                "color-red" : {
                                  "type" : "double",
                                  "defaultValue" : 1.0,
                                  "interp" : "linr"
                                },
                                "size" : {
                                  "type" : "double",
                                  "defaultValue" : 96.0,
                                  "interp" : "linr"
                                },
                                "tracking" : {
                                  "type" : "double",
                                  "defaultValue" : 0.0,
                                  "interp" : "linr"
                                },
                                "name" : "Montserrat",
                                "weight" : "Regular"
                              },
                              "textAttributes" : {
                                "type" : "textAttributeList",
                                "keyframes" : [
                                  {
                                    "endTime" : 0,
                                    "time" : 0,
                                    "value" : [{"name":"strikethrough","rangeEnd":7,"rangeStart":0,"value":0,"valueType":"int"},{"name":"kerning","rangeEnd":7,"rangeStart":0,"value":0,"valueType":"double"},{"name":"underline","rangeEnd":7,"rangeStart":0,"value":0,"valueType":"int"},{"name":"fgColor","rangeEnd":7,"rangeStart":0,"value":"(0,174,141,255)","valueType":"color"},{"name":"fontSize","rangeEnd":7,"rangeStart":0,"value":96,"valueType":"double"},{"name":"fontName","rangeEnd":7,"rangeStart":0,"value":"Montserrat","valueType":"string"},{"name":"fontWeight","rangeEnd":7,"rangeStart":0,"value":400,"valueType":"int"},{"name":"fontItalic","rangeEnd":7,"rangeStart":0,"value":0,"valueType":"int"}],
                                    "duration" : 0
                                  }
                                ]
                              }
                            },
                            "attributes" : {
                              "autoRotateText" : true
                            },
                            "parameters" : {
                              "translation0" : {
                                "type" : "double",
                                "defaultValue" : 0.337209302071049,
                                "interp" : "eioe"
                              },
                              "translation1" : {
                                "type" : "double",
                                "defaultValue" : 0.360465116255867,
                                "interp" : "eioe"
                              }
                            },
                            "effects" : [

                            ],
                            "start" : 0,
                            "duration" : 150,
                            "mediaStart" : 0,
                            "mediaDuration" : 150,
                            "scalar" : 1,
                            "metadata" : {
                              "clipSpeedAttribute" : false,
                              "default-HAlign" : "center",
                              "default-LineSpace" : 0.0,
                              "default-VAlign" : "center",
                              "default-text-attributes" : null,
                              "default-translation0" : 171.0,
                              "default-translation1" : 0.0
                            },
                            "animationTracks" : {

                            }
                          }
                        ],
                          "ident" : "",
                          "audioMuted" : false,
                          "videoHidden" : false,
                          "magnetic" : false,
                          "metadata" : {
                            "IsLocked" : "False",
                            "WinTrackHeight" : "1.57774730333235e-312"
                          }
                      }
                    ],
                    "attributes" : {
                      "ident" : "Group 1",
                      "gain" : 1.0,
                      "mixToMono" : false
                    },
                    "effects" : [

                    ],
                    "start" : 642,
                    "duration" : 150,
                    "mediaStart" : 0.0,
                    "mediaDuration" : 150.0,
                    "scalar" : 1,
                    "metadata" : {
                      "IsGroupExpanded" : "False"
                    },
                    "animationTracks" : {

                    }
                  },
                  {
                    "id" : 21,
                    "_type" : "Group",
                    "parameters" : {
                      "translation0" : {
                        "type" : "double",
                        "defaultValue" : -2.81829670711886e-10,
                        "interp" : "eioe"
                      },
                      "translation1" : {
                        "type" : "double",
                        "defaultValue" : 2.09183781407773e-11,
                        "interp" : "eioe"
                      },
                      "volume" : 1.0
                    },
                    "tracks" : [
                      {
                        "trackIndex" : 0,
                        "medias" : [
                          {
                            "id" : 22,
                            "_type" : "Callout",
                            "def" : {
                              "kind" : "remix",
                              "shape" : "shape-rectangle",
                              "style" : "basic",
                              "fill-color-blue" : {
                                "type" : "double",
                                "defaultValue" : 1.0,
                                "interp" : "linr"
                              },
                              "fill-color-green" : {
                                "type" : "double",
                                "defaultValue" : 1.0,
                                "interp" : "linr"
                              },
                              "fill-color-opacity" : {
                                "type" : "double",
                                "defaultValue" : 1.0,
                                "interp" : "linr"
                              },
                              "fill-color-red" : {
                                "type" : "double",
                                "defaultValue" : 1.0,
                                "interp" : "linr"
                              },
                              "height" : {
                                "type" : "double",
                                "defaultValue" : 1080.00000000014,
                                "interp" : "linr"
                              },
                              "stroke-color-blue" : {
                                "type" : "double",
                                "defaultValue" : 1.0,
                                "interp" : "linr"
                              },
                              "stroke-color-green" : {
                                "type" : "double",
                                "defaultValue" : 1.0,
                                "interp" : "linr"
                              },
                              "stroke-color-opacity" : {
                                "type" : "double",
                                "defaultValue" : 1.0,
                                "interp" : "linr"
                              },
                              "stroke-color-red" : {
                                "type" : "double",
                                "defaultValue" : 1.0,
                                "interp" : "linr"
                              },
                              "stroke-width" : {
                                "type" : "double",
                                "defaultValue" : 0.0,
                                "interp" : "linr"
                              },
                              "width" : {
                                "type" : "double",
                                "defaultValue" : 1920.00000000039,
                                "interp" : "linr"
                              },
                              "fill-style" : "solid",
                              "stroke-style" : "solid"
                            },
                            "attributes" : {
                              "autoRotateText" : true
                            },
                            "parameters" : {
                              "translation1" : {
                                "type" : "double",
                                "defaultValue" : -5.6843418860808e-14,
                                "interp" : "eioe"
                              }
                            },
                            "effects" : [

                            ],
                            "start" : 0,
                            "duration" : 150,
                            "mediaStart" : 0,
                            "mediaDuration" : 150,
                            "scalar" : 1,
                            "metadata" : {
                              "clipSpeedAttribute" : false
                            },
                            "animationTracks" : {

                            }
                          }
                        ],
                          "ident" : "",
                          "audioMuted" : false,
                          "videoHidden" : false,
                          "magnetic" : false,
                          "metadata" : {
                            "IsLocked" : "False",
                            "WinTrackHeight" : "0"
                          }
                      },
                      {
                        "trackIndex" : 1,
                        "medias" : [
                          {
                            "id" : 23,
                            "_type" : "Callout",
                            "def" : {
                              "kind" : "remix",
                              "shape" : "text",
                              "style" : "basic",
                              "height" : {
                                "type" : "double",
                                "defaultValue" : 466.279069767525,
                                "interp" : "linr"
                              },
                              "line-spacing" : {
                                "type" : "double",
                                "defaultValue" : 0.0,
                                "interp" : "linr"
                              },
                              "width" : {
                                "type" : "double",
                                "defaultValue" : 1202.32558139535,
                                "interp" : "linr"
                              },
                              "word-wrap" : {
                                "type" : "double",
                                "defaultValue" : 1.0,
                                "interp" : "linr"
                              },
                              "horizontal-alignment" : "center",
                              "resize-behavior" : "resizeText",
                              "text" : "Records",
                              "vertical-alignment" : "center",
                              "font" : {
                                "color-blue" : {
                                  "type" : "double",
                                  "defaultValue" : 1.0,
                                  "interp" : "linr"
                                },
                                "color-green" : {
                                  "type" : "double",
                                  "defaultValue" : 1.0,
                                  "interp" : "linr"
                                },
                                "color-red" : {
                                  "type" : "double",
                                  "defaultValue" : 1.0,
                                  "interp" : "linr"
                                },
                                "size" : {
                                  "type" : "double",
                                  "defaultValue" : 96.0,
                                  "interp" : "linr"
                                },
                                "tracking" : {
                                  "type" : "double",
                                  "defaultValue" : 0.0,
                                  "interp" : "linr"
                                },
                                "name" : "Montserrat",
                                "weight" : "Regular"
                              },
                              "textAttributes" : {
                                "type" : "textAttributeList",
                                "keyframes" : [
                                  {
                                    "endTime" : 0,
                                    "time" : 0,
                                    "value" : [{"name":"fontWeight","rangeEnd":7,"rangeStart":0,"value":400,"valueType":"int"},{"name":"fontSize","rangeEnd":7,"rangeStart":0,"value":96,"valueType":"double"},{"name":"kerning","rangeEnd":7,"rangeStart":0,"value":0,"valueType":"double"},{"name":"underline","rangeEnd":7,"rangeStart":0,"value":0,"valueType":"int"},{"name":"fontName","rangeEnd":7,"rangeStart":0,"value":"Montserrat","valueType":"string"},{"name":"fgColor","rangeEnd":7,"rangeStart":0,"value":"(0,174,141,255)","valueType":"color"},{"name":"strikethrough","rangeEnd":7,"rangeStart":0,"value":0,"valueType":"int"},{"name":"fontItalic","rangeEnd":7,"rangeStart":0,"value":0,"valueType":"int"}],
                                    "duration" : 0
                                  }
                                ]
                              }
                            },
                            "attributes" : {
                              "autoRotateText" : true
                            },
                            "parameters" : {
                              "translation0" : {
                                "type" : "double",
                                "defaultValue" : 0.337209302071049,
                                "interp" : "eioe"
                              },
                              "translation1" : {
                                "type" : "double",
                                "defaultValue" : 0.360465116255867,
                                "interp" : "eioe"
                              }
                            },
                            "effects" : [

                            ],
                            "start" : 0,
                            "duration" : 150,
                            "mediaStart" : 0,
                            "mediaDuration" : 150,
                            "scalar" : 1,
                            "metadata" : {
                              "clipSpeedAttribute" : false,
                              "default-HAlign" : "center",
                              "default-LineSpace" : 0.0,
                              "default-VAlign" : "center",
                              "default-text-attributes" : null,
                              "default-translation0" : 171.0,
                              "default-translation1" : 0.0
                            },
                            "animationTracks" : {

                            }
                          }
                        ],
                          "ident" : "",
                          "audioMuted" : false,
                          "videoHidden" : false,
                          "magnetic" : false,
                          "metadata" : {
                            "IsLocked" : "False",
                            "WinTrackHeight" : "1.57774730333235e-312"
                          }
                      }
                    ],
                    "attributes" : {
                      "ident" : "Group 1",
                      "gain" : 1.0,
                      "mixToMono" : false
                    },
                    "effects" : [

                    ],
                    "start" : 1444,
                    "duration" : 150,
                    "mediaStart" : 0.0,
                    "mediaDuration" : 150.0,
                    "scalar" : 1,
                    "metadata" : {
                      "IsGroupExpanded" : "False"
                    },
                    "animationTracks" : {

                    }
                  },
                  {
                    "id" : 24,
                    "_type" : "Group",
                    "parameters" : {
                      "translation0" : {
                        "type" : "double",
                        "defaultValue" : -2.81829670711886e-10,
                        "interp" : "eioe"
                      },
                      "translation1" : {
                        "type" : "double",
                        "defaultValue" : 2.09183781407773e-11,
                        "interp" : "eioe"
                      },
                      "volume" : 1.0
                    },
                    "tracks" : [
                      {
                        "trackIndex" : 0,
                        "medias" : [
                          {
                            "id" : 25,
                            "_type" : "Callout",
                            "def" : {
                              "kind" : "remix",
                              "shape" : "shape-rectangle",
                              "style" : "basic",
                              "fill-color-blue" : {
                                "type" : "double",
                                "defaultValue" : 1.0,
                                "interp" : "linr"
                              },
                              "fill-color-green" : {
                                "type" : "double",
                                "defaultValue" : 1.0,
                                "interp" : "linr"
                              },
                              "fill-color-opacity" : {
                                "type" : "double",
                                "defaultValue" : 1.0,
                                "interp" : "linr"
                              },
                              "fill-color-red" : {
                                "type" : "double",
                                "defaultValue" : 1.0,
                                "interp" : "linr"
                              },
                              "height" : {
                                "type" : "double",
                                "defaultValue" : 1080.00000000014,
                                "interp" : "linr"
                              },
                              "stroke-color-blue" : {
                                "type" : "double",
                                "defaultValue" : 1.0,
                                "interp" : "linr"
                              },
                              "stroke-color-green" : {
                                "type" : "double",
                                "defaultValue" : 1.0,
                                "interp" : "linr"
                              },
                              "stroke-color-opacity" : {
                                "type" : "double",
                                "defaultValue" : 1.0,
                                "interp" : "linr"
                              },
                              "stroke-color-red" : {
                                "type" : "double",
                                "defaultValue" : 1.0,
                                "interp" : "linr"
                              },
                              "stroke-width" : {
                                "type" : "double",
                                "defaultValue" : 0.0,
                                "interp" : "linr"
                              },
                              "width" : {
                                "type" : "double",
                                "defaultValue" : 1920.00000000039,
                                "interp" : "linr"
                              },
                              "fill-style" : "solid",
                              "stroke-style" : "solid"
                            },
                            "attributes" : {
                              "autoRotateText" : true
                            },
                            "parameters" : {
                              "translation1" : {
                                "type" : "double",
                                "defaultValue" : -5.6843418860808e-14,
                                "interp" : "eioe"
                              }
                            },
                            "effects" : [

                            ],
                            "start" : 0,
                            "duration" : 150,
                            "mediaStart" : 0,
                            "mediaDuration" : 150,
                            "scalar" : 1,
                            "metadata" : {
                              "clipSpeedAttribute" : false
                            },
                            "animationTracks" : {

                            }
                          }
                        ],
                          "ident" : "",
                          "audioMuted" : false,
                          "videoHidden" : false,
                          "magnetic" : false,
                          "metadata" : {
                            "IsLocked" : "False",
                            "WinTrackHeight" : "0"
                          }
                      },
                      {
                        "trackIndex" : 1,
                        "medias" : [
                          {
                            "id" : 26,
                            "_type" : "Callout",
                            "def" : {
                              "kind" : "remix",
                              "shape" : "text",
                              "style" : "basic",
                              "height" : {
                                "type" : "double",
                                "defaultValue" : 466.279069767525,
                                "interp" : "linr"
                              },
                              "line-spacing" : {
                                "type" : "double",
                                "defaultValue" : 0.0,
                                "interp" : "linr"
                              },
                              "width" : {
                                "type" : "double",
                                "defaultValue" : 1202.32558139535,
                                "interp" : "linr"
                              },
                              "word-wrap" : {
                                "type" : "double",
                                "defaultValue" : 1.0,
                                "interp" : "linr"
                              },
                              "horizontal-alignment" : "center",
                              "resize-behavior" : "resizeText",
                              "text" : "Storage Management",
                              "vertical-alignment" : "center",
                              "font" : {
                                "color-blue" : {
                                  "type" : "double",
                                  "defaultValue" : 1.0,
                                  "interp" : "linr"
                                },
                                "color-green" : {
                                  "type" : "double",
                                  "defaultValue" : 1.0,
                                  "interp" : "linr"
                                },
                                "color-red" : {
                                  "type" : "double",
                                  "defaultValue" : 1.0,
                                  "interp" : "linr"
                                },
                                "size" : {
                                  "type" : "double",
                                  "defaultValue" : 96.0,
                                  "interp" : "linr"
                                },
                                "tracking" : {
                                  "type" : "double",
                                  "defaultValue" : 0.0,
                                  "interp" : "linr"
                                },
                                "name" : "Montserrat",
                                "weight" : "Regular"
                              },
                              "textAttributes" : {
                                "type" : "textAttributeList",
                                "keyframes" : [
                                  {
                                    "endTime" : 0,
                                    "time" : 0,
                                    "value" : [{"name":"fontWeight","rangeEnd":18,"rangeStart":0,"value":400,"valueType":"int"},{"name":"fontItalic","rangeEnd":18,"rangeStart":0,"value":0,"valueType":"int"},{"name":"fontName","rangeEnd":18,"rangeStart":0,"value":"Montserrat","valueType":"string"},{"name":"fontSize","rangeEnd":18,"rangeStart":0,"value":96,"valueType":"double"},{"name":"strikethrough","rangeEnd":18,"rangeStart":0,"value":0,"valueType":"int"},{"name":"underline","rangeEnd":18,"rangeStart":0,"value":0,"valueType":"int"},{"name":"kerning","rangeEnd":18,"rangeStart":0,"value":0,"valueType":"double"},{"name":"fgColor","rangeEnd":18,"rangeStart":0,"value":"(0,174,141,255)","valueType":"color"}],
                                    "duration" : 0
                                  }
                                ]
                              }
                            },
                            "attributes" : {
                              "autoRotateText" : true
                            },
                            "parameters" : {
                              "translation0" : {
                                "type" : "double",
                                "defaultValue" : 0.337209302071049,
                                "interp" : "eioe"
                              },
                              "translation1" : {
                                "type" : "double",
                                "defaultValue" : 0.360465116255867,
                                "interp" : "eioe"
                              }
                            },
                            "effects" : [

                            ],
                            "start" : 0,
                            "duration" : 150,
                            "mediaStart" : 0,
                            "mediaDuration" : 150,
                            "scalar" : 1,
                            "metadata" : {
                              "clipSpeedAttribute" : false,
                              "default-HAlign" : "center",
                              "default-LineSpace" : 0.0,
                              "default-VAlign" : "center",
                              "default-text-attributes" : null,
                              "default-translation0" : 171.0,
                              "default-translation1" : 0.0
                            },
                            "animationTracks" : {

                            }
                          }
                        ],
                          "ident" : "",
                          "audioMuted" : false,
                          "videoHidden" : false,
                          "magnetic" : false,
                          "metadata" : {
                            "IsLocked" : "False",
                            "WinTrackHeight" : "1.57774730333235e-312"
                          }
                      }
                    ],
                    "attributes" : {
                      "ident" : "Group 1",
                      "gain" : 1.0,
                      "mixToMono" : false
                    },
                    "effects" : [

                    ],
                    "start" : 2245,
                    "duration" : 150,
                    "mediaStart" : 0.0,
                    "mediaDuration" : 150.0,
                    "scalar" : 1,
                    "metadata" : {
                      "IsGroupExpanded" : "False"
                    },
                    "animationTracks" : {

                    }
                  },
                  {
                    "id" : 27,
                    "_type" : "Group",
                    "parameters" : {
                      "translation0" : {
                        "type" : "double",
                        "defaultValue" : -2.81829670711886e-10,
                        "interp" : "eioe"
                      },
                      "translation1" : {
                        "type" : "double",
                        "defaultValue" : 2.09183781407773e-11,
                        "interp" : "eioe"
                      },
                      "volume" : 1.0
                    },
                    "tracks" : [
                      {
                        "trackIndex" : 0,
                        "medias" : [
                          {
                            "id" : 28,
                            "_type" : "Callout",
                            "def" : {
                              "kind" : "remix",
                              "shape" : "shape-rectangle",
                              "style" : "basic",
                              "fill-color-blue" : {
                                "type" : "double",
                                "defaultValue" : 1.0,
                                "interp" : "linr"
                              },
                              "fill-color-green" : {
                                "type" : "double",
                                "defaultValue" : 1.0,
                                "interp" : "linr"
                              },
                              "fill-color-opacity" : {
                                "type" : "double",
                                "defaultValue" : 1.0,
                                "interp" : "linr"
                              },
                              "fill-color-red" : {
                                "type" : "double",
                                "defaultValue" : 1.0,
                                "interp" : "linr"
                              },
                              "height" : {
                                "type" : "double",
                                "defaultValue" : 1080.00000000014,
                                "interp" : "linr"
                              },
                              "stroke-color-blue" : {
                                "type" : "double",
                                "defaultValue" : 1.0,
                                "interp" : "linr"
                              },
                              "stroke-color-green" : {
                                "type" : "double",
                                "defaultValue" : 1.0,
                                "interp" : "linr"
                              },
                              "stroke-color-opacity" : {
                                "type" : "double",
                                "defaultValue" : 1.0,
                                "interp" : "linr"
                              },
                              "stroke-color-red" : {
                                "type" : "double",
                                "defaultValue" : 1.0,
                                "interp" : "linr"
                              },
                              "stroke-width" : {
                                "type" : "double",
                                "defaultValue" : 0.0,
                                "interp" : "linr"
                              },
                              "width" : {
                                "type" : "double",
                                "defaultValue" : 1920.00000000039,
                                "interp" : "linr"
                              },
                              "fill-style" : "solid",
                              "stroke-style" : "solid"
                            },
                            "attributes" : {
                              "autoRotateText" : true
                            },
                            "parameters" : {
                              "translation1" : {
                                "type" : "double",
                                "defaultValue" : -5.6843418860808e-14,
                                "interp" : "eioe"
                              }
                            },
                            "effects" : [

                            ],
                            "start" : 0,
                            "duration" : 150,
                            "mediaStart" : 0,
                            "mediaDuration" : 150,
                            "scalar" : 1,
                            "metadata" : {
                              "clipSpeedAttribute" : false
                            },
                            "animationTracks" : {

                            }
                          }
                        ],
                          "ident" : "",
                          "audioMuted" : false,
                          "videoHidden" : false,
                          "magnetic" : false,
                          "metadata" : {
                            "IsLocked" : "False",
                            "WinTrackHeight" : "0"
                          }
                      },
                      {
                        "trackIndex" : 1,
                        "medias" : [
                          {
                            "id" : 29,
                            "_type" : "Callout",
                            "def" : {
                              "kind" : "remix",
                              "shape" : "text",
                              "style" : "basic",
                              "height" : {
                                "type" : "double",
                                "defaultValue" : 466.279069767525,
                                "interp" : "linr"
                              },
                              "line-spacing" : {
                                "type" : "double",
                                "defaultValue" : 0.0,
                                "interp" : "linr"
                              },
                              "width" : {
                                "type" : "double",
                                "defaultValue" : 1202.32558139535,
                                "interp" : "linr"
                              },
                              "word-wrap" : {
                                "type" : "double",
                                "defaultValue" : 1.0,
                                "interp" : "linr"
                              },
                              "horizontal-alignment" : "center",
                              "resize-behavior" : "resizeText",
                              "text" : "Request",
                              "vertical-alignment" : "center",
                              "font" : {
                                "color-blue" : {
                                  "type" : "double",
                                  "defaultValue" : 1.0,
                                  "interp" : "linr"
                                },
                                "color-green" : {
                                  "type" : "double",
                                  "defaultValue" : 1.0,
                                  "interp" : "linr"
                                },
                                "color-red" : {
                                  "type" : "double",
                                  "defaultValue" : 1.0,
                                  "interp" : "linr"
                                },
                                "size" : {
                                  "type" : "double",
                                  "defaultValue" : 96.0,
                                  "interp" : "linr"
                                },
                                "tracking" : {
                                  "type" : "double",
                                  "defaultValue" : 0.0,
                                  "interp" : "linr"
                                },
                                "name" : "Montserrat",
                                "weight" : "Regular"
                              },
                              "textAttributes" : {
                                "type" : "textAttributeList",
                                "keyframes" : [
                                  {
                                    "endTime" : 0,
                                    "time" : 0,
                                    "value" : [{"name":"strikethrough","rangeEnd":7,"rangeStart":0,"value":0,"valueType":"int"},{"name":"underline","rangeEnd":7,"rangeStart":0,"value":0,"valueType":"int"},{"name":"kerning","rangeEnd":7,"rangeStart":0,"value":0,"valueType":"double"},{"name":"fontName","rangeEnd":7,"rangeStart":0,"value":"Montserrat","valueType":"string"},{"name":"fgColor","rangeEnd":7,"rangeStart":0,"value":"(0,174,141,255)","valueType":"color"},{"name":"fontSize","rangeEnd":7,"rangeStart":0,"value":96,"valueType":"double"},{"name":"fontWeight","rangeEnd":7,"rangeStart":0,"value":400,"valueType":"int"},{"name":"fontItalic","rangeEnd":7,"rangeStart":0,"value":0,"valueType":"int"}],
                                    "duration" : 0
                                  }
                                ]
                              }
                            },
                            "attributes" : {
                              "autoRotateText" : true
                            },
                            "parameters" : {
                              "translation0" : {
                                "type" : "double",
                                "defaultValue" : 0.337209302071049,
                                "interp" : "eioe"
                              },
                              "translation1" : {
                                "type" : "double",
                                "defaultValue" : 0.360465116255867,
                                "interp" : "eioe"
                              }
                            },
                            "effects" : [

                            ],
                            "start" : 0,
                            "duration" : 81,
                            "mediaStart" : 0,
                            "mediaDuration" : 81,
                            "scalar" : 1,
                            "metadata" : {
                              "clipSpeedAttribute" : false,
                              "default-HAlign" : "center",
                              "default-LineSpace" : 0.0,
                              "default-VAlign" : "center",
                              "default-text-attributes" : null,
                              "default-translation0" : 171.0,
                              "default-translation1" : 0.0
                            },
                            "animationTracks" : {

                            }
                          },
                          {
                            "id" : 30,
                            "_type" : "Callout",
                            "def" : {
                              "kind" : "remix",
                              "shape" : "text",
                              "style" : "basic",
                              "height" : {
                                "type" : "double",
                                "defaultValue" : 466.279069767525,
                                "interp" : "linr"
                              },
                              "line-spacing" : {
                                "type" : "double",
                                "defaultValue" : 0.0,
                                "interp" : "linr"
                              },
                              "width" : {
                                "type" : "double",
                                "defaultValue" : 1202.32558139535,
                                "interp" : "linr"
                              },
                              "word-wrap" : {
                                "type" : "double",
                                "defaultValue" : 1.0,
                                "interp" : "linr"
                              },
                              "horizontal-alignment" : "center",
                              "resize-behavior" : "resizeText",
                              "text" : "Requests",
                              "vertical-alignment" : "center",
                              "font" : {
                                "color-blue" : {
                                  "type" : "double",
                                  "defaultValue" : 1.0,
                                  "interp" : "linr"
                                },
                                "color-green" : {
                                  "type" : "double",
                                  "defaultValue" : 1.0,
                                  "interp" : "linr"
                                },
                                "color-red" : {
                                  "type" : "double",
                                  "defaultValue" : 1.0,
                                  "interp" : "linr"
                                },
                                "size" : {
                                  "type" : "double",
                                  "defaultValue" : 96.0,
                                  "interp" : "linr"
                                },
                                "tracking" : {
                                  "type" : "double",
                                  "defaultValue" : 0.0,
                                  "interp" : "linr"
                                },
                                "name" : "Montserrat",
                                "weight" : "Regular"
                              },
                              "textAttributes" : {
                                "type" : "textAttributeList",
                                "keyframes" : [
                                  {
                                    "endTime" : 0,
                                    "time" : 0,
                                    "value" : [{"name":"kerning","rangeEnd":8,"rangeStart":0,"value":0,"valueType":"double"},{"name":"fontItalic","rangeEnd":8,"rangeStart":0,"value":0,"valueType":"int"},{"name":"fgColor","rangeEnd":8,"rangeStart":0,"value":"(0,174,141,255)","valueType":"color"},{"name":"fontSize","rangeEnd":8,"rangeStart":0,"value":96,"valueType":"double"},{"name":"fontWeight","rangeEnd":8,"rangeStart":0,"value":400,"valueType":"int"},{"name":"underline","rangeEnd":8,"rangeStart":0,"value":0,"valueType":"int"},{"name":"fontName","rangeEnd":8,"rangeStart":0,"value":"Montserrat","valueType":"string"},{"name":"strikethrough","rangeEnd":8,"rangeStart":0,"value":0,"valueType":"int"}],
                                    "duration" : 0
                                  }
                                ]
                              }
                            },
                            "attributes" : {
                              "autoRotateText" : true
                            },
                            "parameters" : {
                              "translation0" : {
                                "type" : "double",
                                "defaultValue" : 0.337209302071049,
                                "interp" : "eioe"
                              },
                              "translation1" : {
                                "type" : "double",
                                "defaultValue" : 0.360465116255867,
                                "interp" : "eioe"
                              }
                            },
                            "effects" : [

                            ],
                            "start" : 81,
                            "duration" : 69,
                            "mediaStart" : 81,
                            "mediaDuration" : 69,
                            "scalar" : 1,
                            "metadata" : {
                              "clipSpeedAttribute" : false,
                              "default-HAlign" : "center",
                              "default-LineSpace" : 0.0,
                              "default-VAlign" : "center",
                              "default-text-attributes" : null,
                              "default-translation0" : 171.0,
                              "default-translation1" : 0.0
                            },
                            "animationTracks" : {

                            }
                          }
                        ],
                          "ident" : "",
                          "audioMuted" : false,
                          "videoHidden" : false,
                          "magnetic" : false,
                          "metadata" : {
                            "IsLocked" : "False",
                            "WinTrackHeight" : "1.57774730333235e-312"
                          }
                      }
                    ],
                    "attributes" : {
                      "ident" : "Group 1",
                      "gain" : 1.0,
                      "mixToMono" : false
                    },
                    "effects" : [

                    ],
                    "start" : 3060,
                    "duration" : 150,
                    "mediaStart" : 0.0,
                    "mediaDuration" : 150.0,
                    "scalar" : 1,
                    "metadata" : {
                      "IsGroupExpanded" : "False"
                    },
                    "animationTracks" : {

                    }
                  },
                  {
                    "id" : 31,
                    "_type" : "Group",
                    "parameters" : {
                      "translation0" : {
                        "type" : "double",
                        "defaultValue" : -2.81829670711886e-10,
                        "interp" : "eioe"
                      },
                      "translation1" : {
                        "type" : "double",
                        "defaultValue" : 2.09183781407773e-11,
                        "interp" : "eioe"
                      },
                      "volume" : 1.0
                    },
                    "tracks" : [
                      {
                        "trackIndex" : 0,
                        "medias" : [
                          {
                            "id" : 32,
                            "_type" : "Callout",
                            "def" : {
                              "kind" : "remix",
                              "shape" : "shape-rectangle",
                              "style" : "basic",
                              "fill-color-blue" : {
                                "type" : "double",
                                "defaultValue" : 1.0,
                                "interp" : "linr"
                              },
                              "fill-color-green" : {
                                "type" : "double",
                                "defaultValue" : 1.0,
                                "interp" : "linr"
                              },
                              "fill-color-opacity" : {
                                "type" : "double",
                                "defaultValue" : 1.0,
                                "interp" : "linr"
                              },
                              "fill-color-red" : {
                                "type" : "double",
                                "defaultValue" : 1.0,
                                "interp" : "linr"
                              },
                              "height" : {
                                "type" : "double",
                                "defaultValue" : 1080.00000000014,
                                "interp" : "linr"
                              },
                              "stroke-color-blue" : {
                                "type" : "double",
                                "defaultValue" : 1.0,
                                "interp" : "linr"
                              },
                              "stroke-color-green" : {
                                "type" : "double",
                                "defaultValue" : 1.0,
                                "interp" : "linr"
                              },
                              "stroke-color-opacity" : {
                                "type" : "double",
                                "defaultValue" : 1.0,
                                "interp" : "linr"
                              },
                              "stroke-color-red" : {
                                "type" : "double",
                                "defaultValue" : 1.0,
                                "interp" : "linr"
                              },
                              "stroke-width" : {
                                "type" : "double",
                                "defaultValue" : 0.0,
                                "interp" : "linr"
                              },
                              "width" : {
                                "type" : "double",
                                "defaultValue" : 1920.00000000039,
                                "interp" : "linr"
                              },
                              "fill-style" : "solid",
                              "stroke-style" : "solid"
                            },
                            "attributes" : {
                              "autoRotateText" : true
                            },
                            "parameters" : {
                              "translation1" : {
                                "type" : "double",
                                "defaultValue" : -5.6843418860808e-14,
                                "interp" : "eioe"
                              }
                            },
                            "effects" : [

                            ],
                            "start" : 0,
                            "duration" : 150,
                            "mediaStart" : 0,
                            "mediaDuration" : 150,
                            "scalar" : 1,
                            "metadata" : {
                              "clipSpeedAttribute" : false
                            },
                            "animationTracks" : {

                            }
                          }
                        ],
                          "ident" : "",
                          "audioMuted" : false,
                          "videoHidden" : false,
                          "magnetic" : false,
                          "metadata" : {
                            "IsLocked" : "False",
                            "WinTrackHeight" : "0"
                          }
                      },
                      {
                        "trackIndex" : 1,
                        "medias" : [
                          {
                            "id" : 33,
                            "_type" : "Callout",
                            "def" : {
                              "kind" : "remix",
                              "shape" : "text",
                              "style" : "basic",
                              "height" : {
                                "type" : "double",
                                "defaultValue" : 466.279069767525,
                                "interp" : "linr"
                              },
                              "line-spacing" : {
                                "type" : "double",
                                "defaultValue" : 0.0,
                                "interp" : "linr"
                              },
                              "width" : {
                                "type" : "double",
                                "defaultValue" : 1202.32558139535,
                                "interp" : "linr"
                              },
                              "word-wrap" : {
                                "type" : "double",
                                "defaultValue" : 1.0,
                                "interp" : "linr"
                              },
                              "horizontal-alignment" : "center",
                              "resize-behavior" : "resizeText",
                              "text" : "Service Records",
                              "vertical-alignment" : "center",
                              "font" : {
                                "color-blue" : {
                                  "type" : "double",
                                  "defaultValue" : 1.0,
                                  "interp" : "linr"
                                },
                                "color-green" : {
                                  "type" : "double",
                                  "defaultValue" : 1.0,
                                  "interp" : "linr"
                                },
                                "color-red" : {
                                  "type" : "double",
                                  "defaultValue" : 1.0,
                                  "interp" : "linr"
                                },
                                "size" : {
                                  "type" : "double",
                                  "defaultValue" : 96.0,
                                  "interp" : "linr"
                                },
                                "tracking" : {
                                  "type" : "double",
                                  "defaultValue" : 0.0,
                                  "interp" : "linr"
                                },
                                "name" : "Montserrat",
                                "weight" : "Regular"
                              },
                              "textAttributes" : {
                                "type" : "textAttributeList",
                                "keyframes" : [
                                  {
                                    "endTime" : 0,
                                    "time" : 0,
                                    "value" : [{"name":"fontWeight","rangeEnd":15,"rangeStart":0,"value":400,"valueType":"int"},{"name":"fontName","rangeEnd":15,"rangeStart":0,"value":"Montserrat","valueType":"string"},{"name":"fontItalic","rangeEnd":15,"rangeStart":0,"value":0,"valueType":"int"},{"name":"fontSize","rangeEnd":15,"rangeStart":0,"value":96,"valueType":"double"},{"name":"strikethrough","rangeEnd":15,"rangeStart":0,"value":0,"valueType":"int"},{"name":"underline","rangeEnd":15,"rangeStart":0,"value":0,"valueType":"int"},{"name":"kerning","rangeEnd":15,"rangeStart":0,"value":0,"valueType":"double"},{"name":"fgColor","rangeEnd":15,"rangeStart":0,"value":"(0,174,141,255)","valueType":"color"}],
                                    "duration" : 0
                                  }
                                ]
                              }
                            },
                            "attributes" : {
                              "autoRotateText" : true
                            },
                            "parameters" : {
                              "translation0" : {
                                "type" : "double",
                                "defaultValue" : 0.337209302071049,
                                "interp" : "eioe"
                              },
                              "translation1" : {
                                "type" : "double",
                                "defaultValue" : 0.360465116255867,
                                "interp" : "eioe"
                              }
                            },
                            "effects" : [

                            ],
                            "start" : 0,
                            "duration" : 150,
                            "mediaStart" : 0,
                            "mediaDuration" : 150,
                            "scalar" : 1,
                            "metadata" : {
                              "clipSpeedAttribute" : false,
                              "default-HAlign" : "center",
                              "default-LineSpace" : 0.0,
                              "default-VAlign" : "center",
                              "default-text-attributes" : null,
                              "default-translation0" : 171.0,
                              "default-translation1" : 0.0
                            },
                            "animationTracks" : {

                            }
                          }
                        ],
                          "ident" : "",
                          "audioMuted" : false,
                          "videoHidden" : false,
                          "magnetic" : false,
                          "metadata" : {
                            "IsLocked" : "False",
                            "WinTrackHeight" : "1.57774730333235e-312"
                          }
                      }
                    ],
                    "attributes" : {
                      "ident" : "Group 1",
                      "gain" : 1.0,
                      "mixToMono" : false
                    },
                    "effects" : [

                    ],
                    "start" : 4412,
                    "duration" : 150,
                    "mediaStart" : 0.0,
                    "mediaDuration" : 150.0,
                    "scalar" : 1,
                    "metadata" : {
                      "IsGroupExpanded" : "False"
                    },
                    "animationTracks" : {

                    }
                  },
                  {
                    "id" : 34,
                    "_type" : "Group",
                    "parameters" : {
                      "translation0" : {
                        "type" : "double",
                        "defaultValue" : -2.81829670711886e-10,
                        "interp" : "eioe"
                      },
                      "translation1" : {
                        "type" : "double",
                        "defaultValue" : 2.09183781407773e-11,
                        "interp" : "eioe"
                      },
                      "volume" : 1.0
                    },
                    "tracks" : [
                      {
                        "trackIndex" : 0,
                        "medias" : [
                          {
                            "id" : 35,
                            "_type" : "Callout",
                            "def" : {
                              "kind" : "remix",
                              "shape" : "shape-rectangle",
                              "style" : "basic",
                              "fill-color-blue" : {
                                "type" : "double",
                                "defaultValue" : 1.0,
                                "interp" : "linr"
                              },
                              "fill-color-green" : {
                                "type" : "double",
                                "defaultValue" : 1.0,
                                "interp" : "linr"
                              },
                              "fill-color-opacity" : {
                                "type" : "double",
                                "defaultValue" : 1.0,
                                "interp" : "linr"
                              },
                              "fill-color-red" : {
                                "type" : "double",
                                "defaultValue" : 1.0,
                                "interp" : "linr"
                              },
                              "height" : {
                                "type" : "double",
                                "defaultValue" : 1080.00000000014,
                                "interp" : "linr"
                              },
                              "stroke-color-blue" : {
                                "type" : "double",
                                "defaultValue" : 1.0,
                                "interp" : "linr"
                              },
                              "stroke-color-green" : {
                                "type" : "double",
                                "defaultValue" : 1.0,
                                "interp" : "linr"
                              },
                              "stroke-color-opacity" : {
                                "type" : "double",
                                "defaultValue" : 1.0,
                                "interp" : "linr"
                              },
                              "stroke-color-red" : {
                                "type" : "double",
                                "defaultValue" : 1.0,
                                "interp" : "linr"
                              },
                              "stroke-width" : {
                                "type" : "double",
                                "defaultValue" : 0.0,
                                "interp" : "linr"
                              },
                              "width" : {
                                "type" : "double",
                                "defaultValue" : 1920.00000000039,
                                "interp" : "linr"
                              },
                              "fill-style" : "solid",
                              "stroke-style" : "solid"
                            },
                            "attributes" : {
                              "autoRotateText" : true
                            },
                            "parameters" : {
                              "translation1" : {
                                "type" : "double",
                                "defaultValue" : -5.6843418860808e-14,
                                "interp" : "eioe"
                              }
                            },
                            "effects" : [

                            ],
                            "start" : 0,
                            "duration" : 150,
                            "mediaStart" : 0,
                            "mediaDuration" : 150,
                            "scalar" : 1,
                            "metadata" : {
                              "clipSpeedAttribute" : false
                            },
                            "animationTracks" : {

                            }
                          }
                        ],
                          "ident" : "",
                          "audioMuted" : false,
                          "videoHidden" : false,
                          "magnetic" : false,
                          "metadata" : {
                            "IsLocked" : "False",
                            "WinTrackHeight" : "0"
                          }
                      },
                      {
                        "trackIndex" : 1,
                        "medias" : [
                          {
                            "id" : 36,
                            "_type" : "Callout",
                            "def" : {
                              "kind" : "remix",
                              "shape" : "text",
                              "style" : "basic",
                              "height" : {
                                "type" : "double",
                                "defaultValue" : 466.279069767525,
                                "interp" : "linr"
                              },
                              "line-spacing" : {
                                "type" : "double",
                                "defaultValue" : 0.0,
                                "interp" : "linr"
                              },
                              "width" : {
                                "type" : "double",
                                "defaultValue" : 1202.32558139535,
                                "interp" : "linr"
                              },
                              "word-wrap" : {
                                "type" : "double",
                                "defaultValue" : 1.0,
                                "interp" : "linr"
                              },
                              "horizontal-alignment" : "center",
                              "resize-behavior" : "resizeText",
                              "text" : "Retention",
                              "vertical-alignment" : "center",
                              "font" : {
                                "color-blue" : {
                                  "type" : "double",
                                  "defaultValue" : 1.0,
                                  "interp" : "linr"
                                },
                                "color-green" : {
                                  "type" : "double",
                                  "defaultValue" : 1.0,
                                  "interp" : "linr"
                                },
                                "color-red" : {
                                  "type" : "double",
                                  "defaultValue" : 1.0,
                                  "interp" : "linr"
                                },
                                "size" : {
                                  "type" : "double",
                                  "defaultValue" : 96.0,
                                  "interp" : "linr"
                                },
                                "tracking" : {
                                  "type" : "double",
                                  "defaultValue" : 0.0,
                                  "interp" : "linr"
                                },
                                "name" : "Montserrat",
                                "weight" : "Regular"
                              },
                              "textAttributes" : {
                                "type" : "textAttributeList",
                                "keyframes" : [
                                  {
                                    "endTime" : 0,
                                    "time" : 0,
                                    "value" : [{"name":"strikethrough","rangeEnd":9,"rangeStart":0,"value":0,"valueType":"int"},{"name":"fontSize","rangeEnd":9,"rangeStart":0,"value":96,"valueType":"double"},{"name":"kerning","rangeEnd":9,"rangeStart":0,"value":0,"valueType":"double"},{"name":"fgColor","rangeEnd":9,"rangeStart":0,"value":"(0,174,141,255)","valueType":"color"},{"name":"fontName","rangeEnd":9,"rangeStart":0,"value":"Montserrat","valueType":"string"},{"name":"underline","rangeEnd":9,"rangeStart":0,"value":0,"valueType":"int"},{"name":"fontWeight","rangeEnd":9,"rangeStart":0,"value":400,"valueType":"int"},{"name":"fontItalic","rangeEnd":9,"rangeStart":0,"value":0,"valueType":"int"}],
                                    "duration" : 0
                                  }
                                ]
                              }
                            },
                            "attributes" : {
                              "autoRotateText" : true
                            },
                            "parameters" : {
                              "translation0" : {
                                "type" : "double",
                                "defaultValue" : 0.337209302071049,
                                "interp" : "eioe"
                              },
                              "translation1" : {
                                "type" : "double",
                                "defaultValue" : 0.360465116255867,
                                "interp" : "eioe"
                              }
                            },
                            "effects" : [

                            ],
                            "start" : 0,
                            "duration" : 150,
                            "mediaStart" : 0,
                            "mediaDuration" : 150,
                            "scalar" : 1,
                            "metadata" : {
                              "clipSpeedAttribute" : false,
                              "default-HAlign" : "center",
                              "default-LineSpace" : 0.0,
                              "default-VAlign" : "center",
                              "default-text-attributes" : null,
                              "default-translation0" : 171.0,
                              "default-translation1" : 0.0
                            },
                            "animationTracks" : {

                            }
                          }
                        ],
                          "ident" : "",
                          "audioMuted" : false,
                          "videoHidden" : false,
                          "magnetic" : false,
                          "metadata" : {
                            "IsLocked" : "False",
                            "WinTrackHeight" : "1.57774730333235e-312"
                          }
                      }
                    ],
                    "attributes" : {
                      "ident" : "Group 1",
                      "gain" : 1.0,
                      "mixToMono" : false
                    },
                    "effects" : [

                    ],
                    "start" : 5643,
                    "duration" : 150,
                    "mediaStart" : 0.0,
                    "mediaDuration" : 150.0,
                    "scalar" : 1,
                    "metadata" : {
                      "IsGroupExpanded" : "False"
                    },
                    "animationTracks" : {

                    }
                  }
                ],
                "transitions" : [
                  {
                    "name" : "Fade",
                    "duration" : 30,
                    "trivial" : false,
                    "reverse" : false,
                    "useAudioPreRoll" : true,
                    "useVisualPreRoll" : true,
                    "rightMedia" : 15
                  },
                  {
                    "name" : "Fade",
                    "duration" : 30,
                    "trivial" : false,
                    "reverse" : false,
                    "useAudioPreRoll" : true,
                    "useVisualPreRoll" : true,
                    "leftMedia" : 15
                  },
                  {
                    "name" : "Fade",
                    "duration" : 30,
                    "trivial" : false,
                    "reverse" : false,
                    "useAudioPreRoll" : true,
                    "useVisualPreRoll" : true,
                    "rightMedia" : 18
                  },
                  {
                    "name" : "Fade",
                    "duration" : 30,
                    "trivial" : false,
                    "reverse" : false,
                    "useAudioPreRoll" : true,
                    "useVisualPreRoll" : true,
                    "leftMedia" : 18
                  },
                  {
                    "name" : "Fade",
                    "duration" : 30,
                    "trivial" : false,
                    "reverse" : false,
                    "useAudioPreRoll" : true,
                    "useVisualPreRoll" : true,
                    "rightMedia" : 21
                  },
                  {
                    "name" : "Fade",
                    "duration" : 30,
                    "trivial" : false,
                    "reverse" : false,
                    "useAudioPreRoll" : true,
                    "useVisualPreRoll" : true,
                    "leftMedia" : 21
                  },
                  {
                    "name" : "Fade",
                    "duration" : 30,
                    "trivial" : false,
                    "reverse" : false,
                    "useAudioPreRoll" : true,
                    "useVisualPreRoll" : true,
                    "rightMedia" : 24
                  },
                  {
                    "name" : "Fade",
                    "duration" : 30,
                    "trivial" : false,
                    "reverse" : false,
                    "useAudioPreRoll" : true,
                    "useVisualPreRoll" : true,
                    "leftMedia" : 24
                  },
                  {
                    "name" : "Fade",
                    "duration" : 30,
                    "trivial" : false,
                    "reverse" : false,
                    "useAudioPreRoll" : true,
                    "useVisualPreRoll" : true,
                    "rightMedia" : 27
                  },
                  {
                    "name" : "Fade",
                    "duration" : 30,
                    "trivial" : false,
                    "reverse" : false,
                    "useAudioPreRoll" : true,
                    "useVisualPreRoll" : true,
                    "leftMedia" : 27
                  },
                  {
                    "name" : "Fade",
                    "duration" : 30,
                    "trivial" : false,
                    "reverse" : false,
                    "useAudioPreRoll" : true,
                    "useVisualPreRoll" : true,
                    "rightMedia" : 31
                  },
                  {
                    "name" : "Fade",
                    "duration" : 30,
                    "trivial" : false,
                    "reverse" : false,
                    "useAudioPreRoll" : true,
                    "useVisualPreRoll" : true,
                    "leftMedia" : 31
                  },
                  {
                    "name" : "Fade",
                    "duration" : 30,
                    "trivial" : false,
                    "reverse" : false,
                    "useAudioPreRoll" : true,
                    "useVisualPreRoll" : true,
                    "rightMedia" : 34
                  },
                  {
                    "name" : "Fade",
                    "duration" : 30,
                    "trivial" : false,
                    "reverse" : false,
                    "useAudioPreRoll" : true,
                    "useVisualPreRoll" : true,
                    "leftMedia" : 34
                  }
                ]
              },
              {
                "trackIndex" : 2,
                "medias" : [
                ]
              },
              {
                "trackIndex" : 3,
                "medias" : [
                ]
              }
            ]
          }
        }
      ]
    },
    "trackAttributes" : [
      {
        "ident" : "",
        "audioMuted" : false,
        "videoHidden" : false,
        "magnetic" : false,
        "metadata" : {
          "IsLocked" : "False",
          "WinTrackHeight" : "56"
        }
      },
      {
        "ident" : "",
        "audioMuted" : false,
        "videoHidden" : false,
        "magnetic" : false,
        "metadata" : {
          "IsLocked" : "False",
          "WinTrackHeight" : "56"
        }
      },
      {
        "ident" : "",
        "audioMuted" : false,
        "videoHidden" : false,
        "magnetic" : false,
        "metadata" : {
          "IsLocked" : "False",
          "WinTrackHeight" : "56"
        }
      },
      {
        "ident" : "",
        "audioMuted" : false,
        "videoHidden" : false,
        "magnetic" : false,
        "metadata" : {
          "IsLocked" : "False",
          "WinTrackHeight" : "56"
        }
      }
    ],
    "captionAttributes" : {
      "enabled" : true,
      "fontName" : "Arial",
      "fontSize" : 64,
      "backgroundColor" : [ 0, 0, 0, 191],
      "foregroundColor" : [ 255, 255, 255, 255],
      "lang" : "en",
      "alignment" : 0,
      "defaultFontSize" : true,
      "opacity" : 0.5,
      "backgroundEnabled" : true,
      "backgroundOnlyAroundText" : true
    },
    "backgroundColor" : [ 0, 0, 0, 255]
  },
  "metadata" : {
    "AutoSaveFile" : "C:\\Users\\Hasan\\AppData\\Local\\TechSmith\\Camtasia Studio\\19.0\\Auto-Saves\\Untitled Project53531841.autosave.tscproj",
    "CanvasZoom" : 43,
    "Date" : "2020-08-12 03:53:16 PM",
    "IsAutoSave" : "0",
    "Language" : "ENU",
    "ProfileName" : "MP4 only (up to 1080p)",
    "Title" : "Untitled Project",
    "audioNarrationNotes" : "",
    "calloutStyle" : "Basic",
    "canvasDetached" : "False",
    "canvasPositionHeight" : "0",
    "canvasPositionLeft" : "0",
    "canvasPositionTop" : "0",
    "canvasPositionWidth" : "0"
  }
}
